<svg xmlns="http://www.w3.org/2000/svg" xmlns:xlink="http://www.w3.org/1999/xlink" viewBox="0 0 212.98 208.58"><defs><style>.cls-1,.cls-10,.cls-11,.cls-12,.cls-13,.cls-14,.cls-15,.cls-16,.cls-17,.cls-18,.cls-19,.cls-2,.cls-20,.cls-21,.cls-22,.cls-23,.cls-24,.cls-25,.cls-26,.cls-27,.cls-28,.cls-29,.cls-3,.cls-30,.cls-31,.cls-34,.cls-35,.cls-36,.cls-37,.cls-39,.cls-4,.cls-40,.cls-6,.cls-7,.cls-8,.cls-9{opacity:0.5;}.cls-1{fill:url(#New_Gradient_Swatch_1);}.cls-2{fill:url(#New_Gradient_Swatch_2);}.cls-3{fill:url(#New_Gradient_Swatch_2-2);}.cls-4{fill:url(#New_Gradient_Swatch_1-2);}.cls-41,.cls-5{fill:#d1e8f9;}.cls-38,.cls-5{opacity:0.6;}.cls-6{fill:url(#New_Gradient_Swatch_2-3);}.cls-7{fill:url(#New_Gradient_Swatch_1-3);}.cls-8{fill:url(#New_Gradient_Swatch_1-4);}.cls-9{fill:url(#New_Gradient_Swatch_2-4);}.cls-10{fill:url(#New_Gradient_Swatch_2-5);}.cls-11{fill:url(#New_Gradient_Swatch_1-5);}.cls-12{fill:url(#New_Gradient_Swatch_2-6);}.cls-13{fill:url(#New_Gradient_Swatch_1-6);}.cls-14{fill:url(#New_Gradient_Swatch_2-7);}.cls-15{fill:url(#New_Gradient_Swatch_1-7);}.cls-16{fill:url(#New_Gradient_Swatch_2-8);}.cls-17{fill:url(#New_Gradient_Swatch_1-8);}.cls-18{fill:url(#New_Gradient_Swatch_2-9);}.cls-19{fill:url(#New_Gradient_Swatch_1-9);}.cls-20{fill:url(#New_Gradient_Swatch_1-10);}.cls-21{fill:url(#New_Gradient_Swatch_2-10);}.cls-22{fill:url(#New_Gradient_Swatch_2-11);}.cls-23{fill:url(#New_Gradient_Swatch_1-11);}.cls-24{fill:url(#New_Gradient_Swatch_2-12);}.cls-25{fill:url(#New_Gradient_Swatch_1-12);}.cls-26{fill:url(#New_Gradient_Swatch_2-13);}.cls-27{fill:url(#New_Gradient_Swatch_1-13);}.cls-28{fill:url(#New_Gradient_Swatch_2-14);}.cls-29{fill:url(#New_Gradient_Swatch_1-14);}.cls-30{fill:url(#New_Gradient_Swatch_2-15);}.cls-31{fill:url(#New_Gradient_Swatch_1-15);}.cls-32{opacity:0.8;}.cls-33{fill:#cffae6;}.cls-34{fill:url(#New_Gradient_Swatch_1-16);}.cls-35{fill:url(#New_Gradient_Swatch_1-17);}.cls-36{fill:url(#New_Gradient_Swatch_2-16);}.cls-37{fill:url(#New_Gradient_Swatch_1-18);}.cls-38{fill:url(#New_Gradient_Swatch_1-19);}.cls-39{fill:url(#New_Gradient_Swatch_2-17);}.cls-40{fill:url(#New_Gradient_Swatch_1-20);}</style><linearGradient id="New_Gradient_Swatch_1" x1="133.6" y1="9.57" x2="183.78" y2="67.4" gradientUnits="userSpaceOnUse"><stop offset="0" stop-color="#6ddba9"/><stop offset="1" stop-color="#26bfbf"/></linearGradient><linearGradient id="New_Gradient_Swatch_2" x1="2281.66" y1="41.85" x2="2211.52" y2="81.27" gradientTransform="matrix(-1, 0, 0, 1, 2410.55, 0)" gradientUnits="userSpaceOnUse"><stop offset="0" stop-color="#9aecc7"/><stop offset="1" stop-color="#2aad71"/></linearGradient><linearGradient id="New_Gradient_Swatch_2-2" x1="-1346.49" y1="313.76" x2="-1313.47" y2="306.99" gradientTransform="matrix(0.87, 0.5, -1, 0.58, 1627.52, 499.96)" xlink:href="#New_Gradient_Swatch_2"/><linearGradient id="New_Gradient_Swatch_1-2" x1="154.89" y1="18.51" x2="204.46" y2="19.33" xlink:href="#New_Gradient_Swatch_1"/><linearGradient id="New_Gradient_Swatch_2-3" x1="124.46" y1="55.97" x2="190.64" y2="82.85" gradientTransform="matrix(1, 0, 0, 1, 0, 0)" xlink:href="#New_Gradient_Swatch_2"/><linearGradient id="New_Gradient_Swatch_1-3" x1="2281.8" y1="42.1" x2="2211.66" y2="81.53" gradientTransform="matrix(-1, 0, 0, 1, 2410.55, 0)" xlink:href="#New_Gradient_Swatch_1"/><linearGradient id="New_Gradient_Swatch_1-4" x1="98.52" y1="59.02" x2="137.35" y2="103.77" xlink:href="#New_Gradient_Swatch_1"/><linearGradient id="New_Gradient_Swatch_2-4" x1="2320.4" y1="84.11" x2="2266.83" y2="114.23" xlink:href="#New_Gradient_Swatch_2"/><linearGradient id="New_Gradient_Swatch_2-5" x1="-1317.99" y1="382.19" x2="-1284.97" y2="375.42" gradientTransform="matrix(0.87, 0.5, -1, 0.58, 1627.52, 499.96)" xlink:href="#New_Gradient_Swatch_2"/><linearGradient id="New_Gradient_Swatch_1-5" x1="111.14" y1="72.27" x2="160.71" y2="73.09" xlink:href="#New_Gradient_Swatch_1"/><linearGradient id="New_Gradient_Swatch_2-6" x1="85.25" y1="97.27" x2="139.69" y2="119.38" gradientTransform="matrix(1, 0, 0, 1, 0, 0)" xlink:href="#New_Gradient_Swatch_2"/><linearGradient id="New_Gradient_Swatch_1-6" x1="2315.35" y1="87.29" x2="2261.77" y2="117.4" gradientTransform="matrix(-1, 0, 0, 1, 2410.55, 0)" xlink:href="#New_Gradient_Swatch_1"/><linearGradient id="New_Gradient_Swatch_2-7" x1="63.33" y1="108.17" x2="90.95" y2="140" gradientTransform="matrix(1, 0, 0, 1, 0, 0)" xlink:href="#New_Gradient_Swatch_2"/><linearGradient id="New_Gradient_Swatch_1-7" x1="2359.21" y1="126.17" x2="2322" y2="147.08" gradientTransform="matrix(-1, 0, 0, 1, 2410.55, 0)" xlink:href="#New_Gradient_Swatch_1"/><linearGradient id="New_Gradient_Swatch_2-8" x1="-1289.85" y1="450.31" x2="-1256.83" y2="443.54" gradientTransform="matrix(0.87, 0.5, -1, 0.58, 1627.52, 499.96)" xlink:href="#New_Gradient_Swatch_2"/><linearGradient id="New_Gradient_Swatch_1-8" x1="67.39" y1="125.67" x2="116.95" y2="126.49" xlink:href="#New_Gradient_Swatch_1"/><linearGradient id="New_Gradient_Swatch_2-9" x1="45.99" y1="138.37" x2="88.84" y2="155.77" gradientTransform="matrix(1, 0, 0, 1, 0, 0)" xlink:href="#New_Gradient_Swatch_2"/><linearGradient id="New_Gradient_Swatch_1-9" x1="2349.03" y1="132.23" x2="2311.81" y2="153.14" gradientTransform="matrix(-1, 0, 0, 1, 2410.55, 0)" xlink:href="#New_Gradient_Swatch_1"/><linearGradient id="New_Gradient_Swatch_1-10" x1="162.3" y1="116.78" x2="203.72" y2="164.51" xlink:href="#New_Gradient_Swatch_1"/><linearGradient id="New_Gradient_Swatch_2-10" x1="2255.79" y1="143.51" x2="2198.44" y2="175.74" xlink:href="#New_Gradient_Swatch_2"/><linearGradient id="New_Gradient_Swatch_2-11" x1="-1223.24" y1="398.48" x2="-1190.23" y2="391.71" gradientTransform="matrix(0.87, 0.5, -1, 0.58, 1627.52, 499.96)" xlink:href="#New_Gradient_Swatch_2"/><linearGradient id="New_Gradient_Swatch_1-11" x1="176.9" y1="129.05" x2="226.46" y2="129.87" xlink:href="#New_Gradient_Swatch_1"/><linearGradient id="New_Gradient_Swatch_2-12" x1="149.97" y1="156.89" x2="207.08" y2="180.08" gradientTransform="matrix(1, 0, 0, 1, 0, 0)" xlink:href="#New_Gradient_Swatch_2"/><linearGradient id="New_Gradient_Swatch_1-12" x1="2251.91" y1="146.02" x2="2194.57" y2="178.25" gradientTransform="matrix(-1, 0, 0, 1, 2410.55, 0)" xlink:href="#New_Gradient_Swatch_1"/><linearGradient id="New_Gradient_Swatch_2-13" x1="135.32" y1="138.35" x2="154.6" y2="160.56" gradientTransform="matrix(1, 0, 0, 1, 0, 0)" xlink:href="#New_Gradient_Swatch_2"/><linearGradient id="New_Gradient_Swatch_1-13" x1="2289.92" y1="151.07" x2="2264.88" y2="165.15" gradientTransform="matrix(-1, 0, 0, 1, 2410.55, 0)" xlink:href="#New_Gradient_Swatch_1"/><linearGradient id="New_Gradient_Swatch_2-14" x1="-1218.62" y1="446.38" x2="-1185.6" y2="439.61" gradientTransform="matrix(0.87, 0.5, -1, 0.58, 1627.52, 499.96)" xlink:href="#New_Gradient_Swatch_2"/><linearGradient id="New_Gradient_Swatch_1-14" x1="133" y1="159.02" x2="182.57" y2="159.84" xlink:href="#New_Gradient_Swatch_1"/><linearGradient id="New_Gradient_Swatch_2-15" x1="114.94" y1="162.56" x2="149.17" y2="176.46" gradientTransform="matrix(1, 0, 0, 1, 0, 0)" xlink:href="#New_Gradient_Swatch_2"/><linearGradient id="New_Gradient_Swatch_1-15" x1="2275.92" y1="159.27" x2="2250.87" y2="173.35" gradientTransform="matrix(-1, 0, 0, 1, 2410.55, 0)" xlink:href="#New_Gradient_Swatch_1"/><linearGradient id="New_Gradient_Swatch_1-16" x1="20.65" y1="136.35" x2="46.87" y2="166.57" xlink:href="#New_Gradient_Swatch_1"/><linearGradient id="New_Gradient_Swatch_1-17" x1="2402.35" y1="153.47" x2="2367.17" y2="173.24" gradientTransform="matrix(-1, 0, 0, 1, 2410.55, 0)" xlink:href="#New_Gradient_Swatch_1"/><linearGradient id="New_Gradient_Swatch_2-16" x1="-1286.4" y1="497.05" x2="-1253.38" y2="490.28" gradientTransform="matrix(0.87, 0.5, -1, 0.58, 1627.52, 499.96)" xlink:href="#New_Gradient_Swatch_2"/><linearGradient id="New_Gradient_Swatch_1-18" x1="23.64" y1="154.38" x2="73.2" y2="155.21" xlink:href="#New_Gradient_Swatch_1"/><linearGradient id="New_Gradient_Swatch_1-19" x1="10.99" y1="175.39" x2="48.52" y2="190.63" xlink:href="#New_Gradient_Swatch_1"/><linearGradient id="New_Gradient_Swatch_2-17" x1="2.79" y1="165.55" x2="44.2" y2="182.37" gradientTransform="matrix(1, 0, 0, 1, 0, 0)" xlink:href="#New_Gradient_Swatch_2"/><linearGradient id="New_Gradient_Swatch_1-20" x1="2391.53" y1="159.89" x2="2356.34" y2="179.66" gradientTransform="matrix(-1, 0, 0, 1, 2410.55, 0)" xlink:href="#New_Gradient_Swatch_1"/></defs><title>Asset 4</title><g id="Layer_2" data-name="Layer 2"><g id="Ñëîé_1" data-name="Ñëîé 1"><polygon class="cls-1" points="161.01 0 161.01 94.9 182.87 107.52 182.87 12.62 161.01 0"/><polygon class="cls-2" points="161.01 0 161.01 94.9 139.15 107.52 139.15 12.62 161.01 0"/><polygon class="cls-3" points="161.01 25.24 139.15 12.62 161.01 0 182.87 12.62 161.01 25.24"/><polygon class="cls-4" points="161.01 24.65 139.66 12.32 139.15 12.62 161.01 25.24 182.87 12.62 182.36 12.33 161.01 24.65"/><polygon class="cls-5" points="161.01 120.14 139.15 107.52 161.01 94.9 182.87 107.52 161.01 120.14"/><polygon class="cls-6" points="139.15 12.62 139.15 107.52 161.01 120.14 161.01 25.24 139.15 12.62"/><polygon class="cls-7" points="182.87 12.62 182.87 107.52 161.01 120.14 161.01 25.24 182.87 12.62"/><polygon class="cls-8" points="117.26 53.76 117.26 120.04 139.12 132.66 139.12 66.38 117.26 53.76"/><polygon class="cls-9" points="117.26 53.76 117.26 120.04 95.4 132.66 95.4 66.38 117.26 53.76"/><polygon class="cls-10" points="117.26 79 95.4 66.38 117.26 53.76 139.12 66.38 117.26 79"/><polygon class="cls-11" points="117.26 78.41 95.91 66.09 95.4 66.38 117.26 79 139.12 66.38 138.61 66.09 117.26 78.41"/><polygon class="cls-5" points="117.26 145.28 95.4 132.66 117.26 120.04 139.12 132.66 117.26 145.28"/><polygon class="cls-12" points="95.4 66.38 95.4 132.66 117.26 145.28 117.26 79 95.4 66.38"/><polygon class="cls-13" points="139.12 66.38 139.12 132.66 117.26 145.28 117.26 79 139.12 66.38"/><polygon class="cls-14" points="73.51 107.17 73.51 145.19 95.37 157.81 95.37 119.79 73.51 107.17"/><polygon class="cls-15" points="73.51 107.17 73.51 145.19 51.65 157.81 51.65 119.79 73.51 107.17"/><polygon class="cls-16" points="73.51 132.41 51.65 119.79 73.51 107.17 95.37 119.79 73.51 132.41"/><polygon class="cls-17" points="73.51 131.82 52.16 119.49 51.65 119.79 73.51 132.41 95.37 119.79 94.86 119.49 73.51 131.82"/><polygon class="cls-5" points="73.51 170.43 51.65 157.81 73.51 145.19 95.37 157.81 73.51 170.43"/><polygon class="cls-18" points="51.65 119.79 51.65 157.81 73.51 170.43 73.51 132.41 51.65 119.79"/><polygon class="cls-19" points="95.37 119.79 95.37 157.81 73.51 170.43 73.51 132.41 95.37 119.79"/><polygon class="cls-20" points="183.01 110.54 183.01 183.33 204.88 195.96 204.88 123.16 183.01 110.54"/><polygon class="cls-21" points="183.01 110.54 183.01 183.33 161.15 195.96 161.15 123.16 183.01 110.54"/><polygon class="cls-22" points="183.01 135.78 161.15 123.16 183.01 110.54 204.88 123.16 183.01 135.78"/><polygon class="cls-23" points="183.01 135.19 161.67 122.87 161.15 123.16 183.01 135.78 204.88 123.16 204.36 122.87 183.01 135.19"/><polygon class="cls-5" points="183.01 208.58 161.15 195.96 183.01 183.34 204.88 195.96 183.01 208.58"/><polygon class="cls-24" points="161.15 123.16 161.15 195.96 183.01 208.58 183.01 135.78 161.15 123.16"/><polygon class="cls-25" points="204.88 123.16 204.88 195.96 183.01 208.58 183.01 135.78 204.88 123.16"/><polygon class="cls-26" points="139.12 140.51 139.12 157.51 160.98 170.13 160.98 153.13 139.12 140.51"/><polygon class="cls-27" points="139.12 140.51 139.12 157.51 117.26 170.13 117.26 153.13 139.12 140.51"/><polygon class="cls-28" points="139.12 165.75 117.26 153.13 139.12 140.51 160.98 153.13 139.12 165.75"/><polygon class="cls-29" points="139.12 165.16 117.77 152.84 117.26 153.13 139.12 165.75 160.98 153.13 160.47 152.84 139.12 165.16"/><polygon class="cls-5" points="139.12 182.75 117.26 170.13 139.12 157.51 160.98 170.13 139.12 182.75"/><polygon class="cls-30" points="117.26 153.13 117.26 170.13 139.12 182.75 139.12 165.75 117.26 153.13"/><polygon class="cls-31" points="160.98 153.13 160.98 170.13 139.12 182.75 139.12 165.75 160.98 153.13"/><g class="cls-32"><circle class="cls-33" cx="1.19" cy="182.93" r="1.19" transform="translate(-40.28 4.76) rotate(-12.73)"/><circle class="cls-33" cx="5.99" cy="180.16" r="1.19" transform="translate(-39.55 5.75) rotate(-12.73)"/><circle class="cls-33" cx="10.79" cy="177.39" r="1.19" transform="translate(-38.83 6.74) rotate(-12.73)"/><circle class="cls-33" cx="15.58" cy="174.62" r="1.19" transform="translate(-38.09 7.73) rotate(-12.73)"/><circle class="cls-33" cx="20.38" cy="171.85" r="1.19" transform="translate(-37.36 8.71) rotate(-12.73)"/><circle class="cls-33" cx="25.18" cy="169.08" r="1.19" transform="translate(-36.64 9.71) rotate(-12.73)"/><circle class="cls-33" cx="29.98" cy="166.3" r="1.19" transform="translate(-35.91 10.69) rotate(-12.73)"/><circle class="cls-33" cx="5.94" cy="185.7" r="1.19" transform="translate(-40.77 5.87) rotate(-12.73)"/><circle class="cls-33" cx="10.74" cy="182.93" r="1.19" transform="translate(-40.05 6.86) rotate(-12.73)"/><circle class="cls-33" cx="15.53" cy="180.16" r="1.19" transform="translate(-39.31 7.85) rotate(-12.73)"/><circle class="cls-33" cx="20.33" cy="177.39" r="1.19" transform="translate(-38.59 8.84) rotate(-12.73)"/><circle class="cls-33" cx="25.13" cy="174.62" r="1.19" transform="translate(-37.86 9.83) rotate(-12.73)"/><circle class="cls-33" cx="29.93" cy="171.85" r="1.19" transform="translate(-37.13 10.82) rotate(-12.73)"/><circle class="cls-33" cx="34.73" cy="169.07" r="1.19" transform="translate(-36.4 11.81) rotate(-12.73)"/><circle class="cls-33" cx="10.69" cy="188.47" r="1.19" transform="translate(-41.27 6.99) rotate(-12.73)"/><circle class="cls-33" cx="15.49" cy="185.7" r="1.19" transform="translate(-40.54 7.98) rotate(-12.73)"/><circle class="cls-33" cx="20.28" cy="182.93" r="1.19" transform="translate(-39.81 8.96) rotate(-12.73)"/><circle class="cls-33" cx="25.08" cy="180.16" r="1.19" transform="translate(-39.09 9.96) rotate(-12.73)"/><circle class="cls-33" cx="29.88" cy="177.39" r="1.19" transform="translate(-38.36 10.95) rotate(-12.73)"/><circle class="cls-33" cx="34.68" cy="174.62" r="1.19" transform="translate(-37.62 11.93) rotate(-12.73)"/><circle class="cls-33" cx="39.48" cy="171.84" r="1.19" transform="translate(-36.89 12.92) rotate(-12.73)"/><circle class="cls-33" cx="15.44" cy="191.24" r="1.19" transform="translate(-41.77 8.1) rotate(-12.73)"/><circle class="cls-33" cx="20.23" cy="188.47" r="1.19" transform="translate(-41.03 9.09) rotate(-12.73)"/><circle class="cls-33" cx="25.03" cy="185.7" r="1.19" transform="translate(-40.31 10.08) rotate(-12.73)"/><circle class="cls-33" cx="29.83" cy="182.93" r="1.19" transform="translate(-39.58 11.07) rotate(-12.73)"/><circle class="cls-33" cx="34.63" cy="180.16" r="1.19" transform="translate(-38.85 12.06) rotate(-12.73)"/><circle class="cls-33" cx="39.43" cy="177.39" r="1.19" transform="translate(-38.12 13.05) rotate(-12.73)"/><circle class="cls-33" cx="44.23" cy="174.62" r="1.19" transform="translate(-37.4 14.04) rotate(-12.73)"/><circle class="cls-33" cx="20.18" cy="194.01" r="1.19" transform="translate(-42.25 9.22) rotate(-12.73)"/><circle class="cls-33" cx="24.98" cy="191.24" r="1.19" transform="translate(-41.52 10.2) rotate(-12.73)"/><circle class="cls-33" cx="29.78" cy="188.47" r="1.19" transform="translate(-40.8 11.2) rotate(-12.73)"/><circle class="cls-33" cx="34.58" cy="185.7" r="1.19" transform="translate(-40.07 12.18) rotate(-12.73)"/><circle class="cls-33" cx="39.38" cy="182.93" r="1.19" transform="translate(-39.34 13.17) rotate(-12.73)"/><circle class="cls-33" cx="44.18" cy="180.16" r="1.19" transform="translate(-38.62 14.17) rotate(-12.73)"/><circle class="cls-33" cx="48.98" cy="177.39" r="1.19" transform="translate(-37.88 15.15) rotate(-12.73)"/><circle class="cls-33" cx="24.93" cy="196.78" r="1.19" transform="translate(-42.74 10.33) rotate(-12.73)"/><circle class="cls-33" cx="29.73" cy="194.01" r="1.19" transform="translate(-42.03 11.32) rotate(-12.73)"/><circle class="cls-33" cx="34.53" cy="191.24" r="1.19" transform="translate(-41.29 12.31) rotate(-12.73)"/><circle class="cls-33" cx="39.33" cy="188.47" r="1.19" transform="translate(-40.56 13.3) rotate(-12.73)"/><circle class="cls-33" cx="44.13" cy="185.7" r="1.19" transform="translate(-39.84 14.29) rotate(-12.73)"/><circle class="cls-33" cx="48.93" cy="182.93" r="1.19" transform="translate(-39.11 15.28) rotate(-12.73)"/><circle class="cls-33" cx="53.72" cy="180.16" r="1.19" transform="translate(-131.83 149.95) rotate(-64.15)"/><circle class="cls-33" cx="29.68" cy="199.55" r="1.19" transform="translate(-43.25 11.45) rotate(-12.73)"/><circle class="cls-33" cx="34.48" cy="196.78" r="1.19" transform="translate(-42.51 12.43) rotate(-12.73)"/><circle class="cls-33" cx="39.28" cy="194.01" r="1.19" transform="translate(-41.78 13.42) rotate(-12.73)"/><circle class="cls-33" cx="44.08" cy="191.24" r="1.19" transform="translate(-41.06 14.42) rotate(-12.73)"/><circle class="cls-33" cx="48.88" cy="188.47" r="1.19" transform="translate(-40.33 15.4) rotate(-12.73)"/><circle class="cls-33" cx="53.67" cy="185.7" r="1.19" transform="translate(-39.6 16.39) rotate(-12.73)"/><circle class="cls-33" cx="58.47" cy="182.93" r="1.19" transform="translate(-38.87 17.38) rotate(-12.73)"/></g><polygon class="cls-34" points="29.75 135.88 29.75 170.39 51.62 183.01 51.62 148.5 29.75 135.88"/><polygon class="cls-35" points="29.76 135.88 29.76 170.39 7.89 183.01 7.89 148.5 29.76 135.88"/><polygon class="cls-36" points="29.76 161.12 7.89 148.5 29.75 135.88 51.62 148.5 29.76 161.12"/><polygon class="cls-37" points="29.76 160.53 8.41 148.2 7.89 148.5 29.76 161.12 51.62 148.5 51.1 148.2 29.76 160.53"/><polygon class="cls-38" points="29.76 195.63 7.89 183.01 29.75 170.39 51.62 183.01 29.76 195.63"/><polygon class="cls-39" points="7.89 148.5 7.89 183.01 29.76 195.63 29.76 161.12 7.89 148.5"/><polygon class="cls-40" points="51.62 148.5 51.62 183.01 29.75 195.63 29.75 161.12 51.62 148.5"/><g class="cls-32"><circle class="cls-41" cx="154.51" cy="122.78" r="1.19" transform="translate(-23.26 37.07) rotate(-12.73)"/><circle class="cls-41" cx="159.31" cy="120.01" r="1.19" transform="translate(-22.53 38.05) rotate(-12.73)"/><circle class="cls-41" cx="164.11" cy="117.24" r="1.19" transform="translate(-21.8 39.04) rotate(-12.73)"/><circle class="cls-41" cx="168.91" cy="114.47" r="1.19" transform="translate(-21.07 40.04) rotate(-12.73)"/><circle class="cls-41" cx="173.7" cy="111.7" r="1.19" transform="translate(-20.34 41.02) rotate(-12.73)"/><circle class="cls-41" cx="178.5" cy="108.92" r="1.19" transform="translate(-19.61 42.01) rotate(-12.73)"/><circle class="cls-41" cx="183.3" cy="106.15" r="1.19" transform="translate(-18.89 43.01) rotate(-12.73)"/><circle class="cls-41" cx="159.26" cy="125.55" r="1.19" transform="translate(-23.75 38.18) rotate(-12.73)"/><circle class="cls-41" cx="164.06" cy="122.78" r="1.19" transform="translate(-23.02 39.17) rotate(-12.73)"/><circle class="cls-41" cx="168.86" cy="120.01" r="1.19" transform="translate(-22.3 40.16) rotate(-12.73)"/><circle class="cls-41" cx="173.65" cy="117.24" r="1.19" transform="translate(-21.57 41.15) rotate(-12.73)"/><circle class="cls-41" cx="178.45" cy="114.47" r="1.19" transform="translate(-20.84 42.13) rotate(-12.73)"/><circle class="cls-41" cx="183.25" cy="111.69" r="1.19" transform="translate(-20.11 43.13) rotate(-12.73)"/><circle class="cls-41" cx="188.05" cy="108.92" r="1.19" transform="translate(-19.38 44.12) rotate(-12.73)"/><circle class="cls-41" cx="164.01" cy="128.32" r="1.19" transform="translate(-24.24 39.29) rotate(-12.73)"/><circle class="cls-41" cx="168.81" cy="125.55" r="1.19" transform="translate(-23.52 40.29) rotate(-12.73)"/><circle class="cls-41" cx="173.6" cy="122.78" r="1.19" transform="translate(-22.79 41.28) rotate(-12.73)"/><circle class="cls-41" cx="178.4" cy="120.01" r="1.19" transform="translate(-22.06 42.26) rotate(-12.73)"/><circle class="cls-41" cx="183.2" cy="117.24" r="1.19" transform="translate(-21.33 43.25) rotate(-12.73)"/><circle class="cls-41" cx="188" cy="114.46" r="1.19" transform="translate(-20.6 44.24) rotate(-12.73)"/><circle class="cls-41" cx="192.8" cy="111.69" r="1.19" transform="translate(-19.87 45.23) rotate(-12.73)"/><circle class="cls-41" cx="168.76" cy="131.09" r="1.19" transform="translate(-24.74 40.41) rotate(-12.73)"/><circle class="cls-41" cx="173.56" cy="128.32" r="1.19" transform="translate(-24.01 41.4) rotate(-12.73)"/><circle class="cls-41" cx="178.35" cy="125.55" r="1.19" transform="translate(-23.28 42.38) rotate(-12.73)"/><circle class="cls-41" cx="183.15" cy="122.78" r="1.19" transform="translate(-22.55 43.37) rotate(-12.73)"/><circle class="cls-41" cx="187.95" cy="120.01" r="1.19" transform="translate(-21.83 44.37) rotate(-12.73)"/><circle class="cls-41" cx="192.75" cy="117.23" r="1.19" transform="translate(-21.09 45.35) rotate(-12.73)"/><circle class="cls-41" cx="197.55" cy="114.46" r="1.19" transform="translate(-20.37 46.34) rotate(-12.73)"/><circle class="cls-41" cx="173.51" cy="133.86" r="1.19" transform="translate(-25.23 41.53) rotate(-12.73)"/><circle class="cls-41" cx="178.3" cy="131.09" r="1.19" transform="translate(-24.5 42.51) rotate(-12.73)"/><circle class="cls-41" cx="183.1" cy="128.32" r="1.19" transform="translate(-23.77 43.5) rotate(-12.73)"/><circle class="cls-41" cx="187.9" cy="125.55" r="1.19" transform="translate(-23.05 44.5) rotate(-12.73)"/><circle class="cls-41" cx="192.7" cy="122.78" r="1.19" transform="translate(-22.32 45.48) rotate(-12.73)"/><circle class="cls-41" cx="197.5" cy="120.01" r="1.19" transform="translate(-21.59 46.47) rotate(-12.73)"/><circle class="cls-41" cx="202.3" cy="117.23" r="1.19" transform="translate(-20.86 47.46) rotate(-12.73)"/><circle class="cls-41" cx="178.25" cy="136.63" r="1.19" transform="translate(-25.72 42.63) rotate(-12.73)"/><circle class="cls-41" cx="183.05" cy="133.86" r="1.19" transform="translate(-25 43.62) rotate(-12.73)"/><circle class="cls-41" cx="187.85" cy="131.09" r="1.19" transform="translate(-24.27 44.62) rotate(-12.73)"/><circle class="cls-41" cx="192.65" cy="128.32" r="1.19" transform="translate(-23.54 45.61) rotate(-12.73)"/><circle class="cls-41" cx="197.45" cy="125.55" r="1.19" transform="translate(-22.81 46.59) rotate(-12.73)"/><circle class="cls-41" cx="202.25" cy="122.78" r="1.19" transform="translate(-22.08 47.58) rotate(-12.73)"/><circle class="cls-41" cx="207.05" cy="120" r="1.19" transform="translate(8.78 254.02) rotate(-64.15)"/><circle class="cls-41" cx="183" cy="139.4" r="1.19" transform="translate(-26.22 43.75) rotate(-12.73)"/><circle class="cls-41" cx="187.8" cy="136.63" r="1.19" transform="translate(-25.49 44.75) rotate(-12.73)"/><circle class="cls-41" cx="192.6" cy="133.86" r="1.19" transform="translate(-24.76 45.74) rotate(-12.73)"/><circle class="cls-41" cx="197.4" cy="131.09" r="1.19" transform="translate(-24.03 46.72) rotate(-12.73)"/><circle class="cls-41" cx="202.2" cy="128.32" r="1.19" transform="translate(-23.3 47.71) rotate(-12.73)"/><circle class="cls-41" cx="207" cy="125.55" r="1.19" transform="translate(-22.58 48.7) rotate(-12.73)"/><circle class="cls-41" cx="211.79" cy="122.77" r="1.19" transform="translate(-21.85 49.68) rotate(-12.73)"/></g></g></g></svg>