<svg xmlns="http://www.w3.org/2000/svg" xmlns:xlink="http://www.w3.org/1999/xlink" viewBox="0 0 297.38 241.82"><defs><style>.cls-1{mask:url(#mask);}.cls-11,.cls-12,.cls-14,.cls-15,.cls-16,.cls-17,.cls-18,.cls-19,.cls-2,.cls-20,.cls-21,.cls-22,.cls-23,.cls-24,.cls-4,.cls-5,.cls-7,.cls-9{mix-blend-mode:multiply;}.cls-2{fill:url(#linear-gradient);}.cls-3{mask:url(#mask-2);}.cls-4{fill:url(#linear-gradient-2);}.cls-5{fill:url(#linear-gradient-3);}.cls-6{mask:url(#mask-4);}.cls-7{fill:url(#linear-gradient-4);}.cls-8{mask:url(#mask-5);}.cls-9{fill:url(#linear-gradient-5);}.cls-10{mask:url(#mask-6);}.cls-11{fill:url(#linear-gradient-6);}.cls-12{fill:url(#linear-gradient-7);}.cls-13{mask:url(#mask-8);}.cls-14{fill:url(#linear-gradient-8);}.cls-15{fill:url(#linear-gradient-9);}.cls-16{fill:url(#linear-gradient-10);}.cls-17{fill:url(#linear-gradient-11);}.cls-18{fill:url(#linear-gradient-12);}.cls-19{fill:url(#linear-gradient-13);}.cls-20{fill:url(#linear-gradient-14);}.cls-21{fill:url(#linear-gradient-15);}.cls-22{fill:url(#linear-gradient-16);}.cls-23{fill:url(#linear-gradient-17);}.cls-24{fill:url(#linear-gradient-18);}.cls-25{fill:none;}.cls-26{isolation:isolate;}.cls-27,.cls-45{fill:#42e8e0;}.cls-28{fill:url(#Áåçûìÿííûé_ãðàäèåíò_24);}.cls-29{fill:url(#Áåçûìÿííûé_ãðàäèåíò_3);}.cls-30,.cls-34{fill:#24126a;}.cls-30,.cls-47{opacity:0.3;}.cls-31{fill:#fff;}.cls-32{fill:url(#Áåçûìÿííûé_ãðàäèåíò_3-2);}.cls-33{fill:url(#Áåçûìÿííûé_ãðàäèåíò_24-2);}.cls-35{opacity:0.51;}.cls-36{fill:#453c9e;}.cls-37{fill:url(#Áåçûìÿííûé_ãðàäèåíò_24-3);}.cls-38{fill:url(#Áåçûìÿííûé_ãðàäèåíò_3-3);}.cls-39{opacity:0.15;}.cls-40{clip-path:url(#clip-path);}.cls-41{fill:url(#Áåçûìÿííûé_ãðàäèåíò_24-4);}.cls-42{fill:url(#Áåçûìÿííûé_ãðàäèåíò_3-4);}.cls-43,.cls-55,.cls-58,.cls-69,.cls-83,.cls-95{opacity:0.5;}.cls-44{opacity:0.8;}.cls-45{opacity:0.4;}.cls-46{fill:url(#Áåçûìÿííûé_ãðàäèåíò_54);}.cls-47{fill:#0f054c;}.cls-48{fill:url(#Áåçûìÿííûé_ãðàäèåíò_51);}.cls-49{fill:url(#Áåçûìÿííûé_ãðàäèåíò_55);}.cls-50{fill:url(#Áåçûìÿííûé_ãðàäèåíò_55-2);}.cls-51{fill:url(#Áåçûìÿííûé_ãðàäèåíò_54-2);}.cls-52{fill:url(#Áåçûìÿííûé_ãðàäèåíò_55-3);}.cls-53{fill:#5351af;}.cls-54{fill:url(#Áåçûìÿííûé_ãðàäèåíò_15);}.cls-55,.cls-58{mix-blend-mode:lighten;}.cls-55{fill:url(#Áåçûìÿííûé_ãðàäèåíò_28);}.cls-56{fill:url(#Áåçûìÿííûé_ãðàäèåíò_3-5);}.cls-57{fill:url(#Áåçûìÿííûé_ãðàäèåíò_3-6);}.cls-58{fill:url(#Áåçûìÿííûé_ãðàäèåíò_56);}.cls-59{fill:#e06703;}.cls-60{mask:url(#mask-19);}.cls-61,.cls-64,.cls-66,.cls-69,.cls-72,.cls-73,.cls-77,.cls-79,.cls-81,.cls-83,.cls-85,.cls-89,.cls-91,.cls-93,.cls-95,.cls-97{mix-blend-mode:overlay;}.cls-61{fill:url(#linear-gradient-19);}.cls-62{fill:#ffd81d;}.cls-63{mask:url(#mask-20);}.cls-64{fill:url(#linear-gradient-20);}.cls-65{mask:url(#mask-21);}.cls-66{fill:url(#linear-gradient-21);}.cls-67{fill:#f9b815;}.cls-68{mask:url(#mask-22);}.cls-69{fill:url(#linear-gradient-22);}.cls-70{fill:#dd7105;}.cls-71{mask:url(#mask-23);}.cls-72{fill:url(#linear-gradient-23);}.cls-74{mask:url(#mask-24);}.cls-75{fill:url(#linear-gradient-24);}.cls-76{mask:url(#mask-25);}.cls-77{fill:url(#linear-gradient-25);}.cls-78{mask:url(#mask-26);}.cls-79{fill:url(#linear-gradient-26);}.cls-80{mask:url(#mask-27);}.cls-81{fill:url(#linear-gradient-27);}.cls-82{mask:url(#mask-28);}.cls-83{fill:url(#linear-gradient-28);}.cls-84{mask:url(#mask-29);}.cls-85{fill:url(#linear-gradient-29);}.cls-86{mask:url(#mask-30);}.cls-87{fill:url(#linear-gradient-30);}.cls-88{mask:url(#mask-31);}.cls-89{fill:url(#linear-gradient-31);}.cls-90{mask:url(#mask-32);}.cls-91{fill:url(#linear-gradient-32);}.cls-92{mask:url(#mask-33);}.cls-93{fill:url(#linear-gradient-33);}.cls-94{mask:url(#mask-34);}.cls-95{fill:url(#linear-gradient-34);}.cls-96{mask:url(#mask-35);}.cls-97{fill:url(#linear-gradient-35);}.cls-98{mask:url(#mask-36);}.cls-99{fill:url(#linear-gradient-36);}.cls-100{filter:url(#luminosity-noclip-36);}.cls-101{filter:url(#luminosity-noclip-35);}.cls-102{filter:url(#luminosity-noclip-34);}.cls-103{filter:url(#luminosity-noclip-33);}.cls-104{filter:url(#luminosity-noclip-32);}.cls-105{filter:url(#luminosity-noclip-31);}.cls-106{filter:url(#luminosity-noclip-30);}.cls-107{filter:url(#luminosity-noclip-29);}.cls-108{filter:url(#luminosity-noclip-28);}.cls-109{filter:url(#luminosity-noclip-27);}.cls-110{filter:url(#luminosity-noclip-26);}.cls-111{filter:url(#luminosity-noclip-25);}.cls-112{filter:url(#luminosity-noclip-24);}.cls-113{filter:url(#luminosity-noclip-23);}.cls-114{filter:url(#luminosity-noclip-22);}.cls-115{filter:url(#luminosity-noclip-21);}.cls-116{filter:url(#luminosity-noclip-20);}.cls-117{filter:url(#luminosity-noclip-19);}.cls-118{filter:url(#luminosity-noclip-8);}.cls-119{filter:url(#luminosity-noclip-6);}.cls-120{filter:url(#luminosity-noclip-5);}.cls-121{filter:url(#luminosity-noclip-4);}.cls-122{filter:url(#luminosity-noclip-2);}.cls-123{filter:url(#luminosity-noclip);}</style><filter id="luminosity-noclip" x="217.36" y="-8367" width="15.1" height="32766" filterUnits="userSpaceOnUse" color-interpolation-filters="sRGB"><feFlood flood-color="#fff" result="bg"/><feBlend in="SourceGraphic" in2="bg"/></filter><mask id="mask" x="217.36" y="-8367" width="15.1" height="32766" maskUnits="userSpaceOnUse"><g class="cls-123"/></mask><linearGradient id="linear-gradient" x1="182.78" y1="225.91" x2="240.64" y2="229.51" gradientUnits="userSpaceOnUse"><stop offset="0"/><stop offset="1" stop-color="#fff"/></linearGradient><filter id="luminosity-noclip-2" x="221.49" y="-8367" width="20.81" height="32766" filterUnits="userSpaceOnUse" color-interpolation-filters="sRGB"><feFlood flood-color="#fff" result="bg"/><feBlend in="SourceGraphic" in2="bg"/></filter><mask id="mask-2" x="221.49" y="-8367" width="20.81" height="32766" maskUnits="userSpaceOnUse"><g class="cls-122"/></mask><linearGradient id="linear-gradient-2" x1="212.48" y1="245.08" x2="230.26" y2="220.91" xlink:href="#linear-gradient"/><linearGradient id="linear-gradient-3" x1="182.78" y1="219.87" x2="240.64" y2="223.47" xlink:href="#linear-gradient"/><filter id="luminosity-noclip-4" x="214.37" y="-8367" width="30.64" height="32766" filterUnits="userSpaceOnUse" color-interpolation-filters="sRGB"><feFlood flood-color="#fff" result="bg"/><feBlend in="SourceGraphic" in2="bg"/></filter><mask id="mask-4" x="214.37" y="-8367" width="30.64" height="32766" maskUnits="userSpaceOnUse"><g class="cls-121"/></mask><linearGradient id="linear-gradient-4" x1="177.58" y1="243.03" x2="231.53" y2="208.98" xlink:href="#linear-gradient"/><filter id="luminosity-noclip-5" x="226.1" y="-8367" width="22.8" height="32766" filterUnits="userSpaceOnUse" color-interpolation-filters="sRGB"><feFlood flood-color="#fff" result="bg"/><feBlend in="SourceGraphic" in2="bg"/></filter><mask id="mask-5" x="226.1" y="-8367" width="22.8" height="32766" maskUnits="userSpaceOnUse"><g class="cls-120"/></mask><linearGradient id="linear-gradient-5" x1="207.39" y1="245.38" x2="236.72" y2="219.71" xlink:href="#linear-gradient"/><filter id="luminosity-noclip-6" x="218.64" y="-8367" width="26.51" height="32766" filterUnits="userSpaceOnUse" color-interpolation-filters="sRGB"><feFlood flood-color="#fff" result="bg"/><feBlend in="SourceGraphic" in2="bg"/></filter><mask id="mask-6" x="218.64" y="-8367" width="26.51" height="32766" maskUnits="userSpaceOnUse"><g class="cls-119"/></mask><linearGradient id="linear-gradient-6" x1="192.75" y1="238.28" x2="239.84" y2="208.56" xlink:href="#linear-gradient"/><linearGradient id="linear-gradient-7" x1="177.58" y1="249.07" x2="231.53" y2="215.02" xlink:href="#linear-gradient"/><filter id="luminosity-noclip-8" x="227.62" y="-8367" width="14.97" height="32766" filterUnits="userSpaceOnUse" color-interpolation-filters="sRGB"><feFlood flood-color="#fff" result="bg"/><feBlend in="SourceGraphic" in2="bg"/></filter><mask id="mask-8" x="227.62" y="-8367" width="14.97" height="32766" maskUnits="userSpaceOnUse"><g class="cls-118"/></mask><linearGradient id="linear-gradient-8" x1="219.07" y1="218.05" x2="240.97" y2="204.23" xlink:href="#linear-gradient"/><linearGradient id="linear-gradient-9" x1="212.48" y1="239.04" x2="230.26" y2="214.87" xlink:href="#linear-gradient"/><linearGradient id="linear-gradient-10" x1="182.78" y1="213.83" x2="240.64" y2="217.43" xlink:href="#linear-gradient"/><linearGradient id="linear-gradient-11" x1="177.58" y1="236.99" x2="231.53" y2="202.94" xlink:href="#linear-gradient"/><linearGradient id="linear-gradient-12" x1="207.39" y1="239.34" x2="236.72" y2="213.67" xlink:href="#linear-gradient"/><linearGradient id="linear-gradient-13" x1="192.75" y1="232.24" x2="239.84" y2="202.52" xlink:href="#linear-gradient"/><linearGradient id="linear-gradient-14" x1="219.07" y1="212.01" x2="240.97" y2="198.19" xlink:href="#linear-gradient"/><linearGradient id="linear-gradient-15" x1="212.48" y1="233" x2="230.26" y2="208.83" xlink:href="#linear-gradient"/><linearGradient id="linear-gradient-16" x1="207.39" y1="251.42" x2="236.72" y2="225.75" xlink:href="#linear-gradient"/><linearGradient id="linear-gradient-17" x1="192.75" y1="244.32" x2="239.84" y2="214.6" xlink:href="#linear-gradient"/><linearGradient id="linear-gradient-18" x1="219.07" y1="224.09" x2="240.97" y2="210.27" xlink:href="#linear-gradient"/><linearGradient id="Áåçûìÿííûé_ãðàäèåíò_24" x1="437.47" y1="220.58" x2="269.34" y2="220.58" gradientUnits="userSpaceOnUse"><stop offset="0" stop-color="#5761d7"/><stop offset="0.18" stop-color="#5c66d9"/><stop offset="0.39" stop-color="#6a73df"/><stop offset="0.61" stop-color="#8289e8"/><stop offset="0.85" stop-color="#a3a7f5"/><stop offset="1" stop-color="#bcbeff"/></linearGradient><linearGradient id="Áåçûìÿííûé_ãðàäèåíò_3" x1="325.01" y1="216.67" x2="493.14" y2="216.67" gradientTransform="matrix(-1, 0, 0, 1, 709.14, 0)" gradientUnits="userSpaceOnUse"><stop offset="0" stop-color="#c0bff6"/><stop offset="0.29" stop-color="#c5c4f7"/><stop offset="0.64" stop-color="#d3d2f9"/><stop offset="1" stop-color="#e9e9fd"/></linearGradient><linearGradient id="Áåçûìÿííûé_ãðàäèåíò_3-2" x1="252.6" y1="142.91" x2="371.59" y2="142.91" xlink:href="#Áåçûìÿííûé_ãðàäèåíò_3"/><linearGradient id="Áåçûìÿííûé_ãðàäèåíò_24-2" x1="252.61" y1="173.43" x2="273.04" y2="173.43" gradientTransform="matrix(-1, 0, 0, 1, 709.14, 0)" xlink:href="#Áåçûìÿííûé_ãðàäèåíò_24"/><linearGradient id="Áåçûìÿííûé_ãðàäèåíò_24-3" x1="268.55" y1="206.72" x2="436.59" y2="206.72" gradientTransform="matrix(-1, 0, 0, 1, 709.14, 0)" xlink:href="#Áåçûìÿííûé_ãðàäèåíò_24"/><linearGradient id="Áåçûìÿííûé_ãðàäèåíò_3-3" x1="325.01" y1="202.12" x2="493.14" y2="202.12" xlink:href="#Áåçûìÿííûé_ãðàäèåíò_3"/><clipPath id="clip-path" transform="translate(-207.87 -72.4)"><polygon class="cls-25" points="453.7 134.69 350.22 74.98 337.21 152.28 440.63 211.96 453.7 134.69"/></clipPath><linearGradient id="Áåçûìÿííûé_ãðàäèåíò_24-4" x1="203.93" y1="169.74" x2="371.97" y2="169.74" gradientTransform="matrix(-1, 0, 0, 1, 709.14, 0)" xlink:href="#Áåçûìÿííûé_ãðàäèåíò_24"/><linearGradient id="Áåçûìÿííûé_ãðàäèåíò_3-4" x1="260.39" y1="165.14" x2="428.52" y2="165.14" xlink:href="#Áåçûìÿííûé_ãðàäèåíò_3"/><linearGradient id="Áåçûìÿííûé_ãðàäèåíò_54" x1="458.81" y1="247.75" x2="499.62" y2="271.32" gradientUnits="userSpaceOnUse"><stop offset="0" stop-color="#bcbeff"/><stop offset="0.23" stop-color="#aaadf8"/><stop offset="0.68" stop-color="#7c83e5"/><stop offset="1" stop-color="#5761d7"/></linearGradient><linearGradient id="Áåçûìÿííûé_ãðàäèåíò_51" x1="461.26" y1="246.17" x2="497.66" y2="267.18" gradientUnits="userSpaceOnUse"><stop offset="0.24" stop-color="#5761d7"/><stop offset="0.39" stop-color="#7a82e5"/><stop offset="0.55" stop-color="#979cf0"/><stop offset="0.7" stop-color="#acaff8"/><stop offset="0.85" stop-color="#b8bafd"/><stop offset="1" stop-color="#bcbeff"/></linearGradient><linearGradient id="Áåçûìÿííûé_ãðàäèåíò_55" x1="453.7" y1="256.66" x2="505.13" y2="256.66" gradientUnits="userSpaceOnUse"><stop offset="0" stop-color="#e9e9fd"/><stop offset="0.36" stop-color="#d3d2f9"/><stop offset="0.71" stop-color="#c5c4f7"/><stop offset="1" stop-color="#c0bff6"/></linearGradient><linearGradient id="Áåçûìÿííûé_ãðàäèåíò_55-2" x1="454.49" y1="256.66" x2="504.34" y2="256.66" xlink:href="#Áåçûìÿííûé_ãðàäèåíò_55"/><linearGradient id="Áåçûìÿííûé_ãðàäèåíò_54-2" x1="257.61" y1="103.27" x2="298.42" y2="126.83" xlink:href="#Áåçûìÿííûé_ãðàäèåíò_54"/><linearGradient id="Áåçûìÿííûé_ãðàäèåíò_55-3" x1="252.49" y1="112.18" x2="303.92" y2="112.18" xlink:href="#Áåçûìÿííûé_ãðàäèåíò_55"/><linearGradient id="Áåçûìÿííûé_ãðàäèåíò_15" x1="207.87" y1="233.29" x2="256.04" y2="233.29" gradientUnits="userSpaceOnUse"><stop offset="0" stop-color="#bcbeff"/><stop offset="0.15" stop-color="#a3a7f5"/><stop offset="0.39" stop-color="#8289e8"/><stop offset="0.61" stop-color="#6a73df"/><stop offset="0.82" stop-color="#5c66d9"/><stop offset="1" stop-color="#5761d7"/></linearGradient><radialGradient id="Áåçûìÿííûé_ãðàäèåíò_28" cx="254.83" cy="240.65" r="28" gradientUnits="userSpaceOnUse"><stop offset="0" stop-color="#42e8e0"/><stop offset="0.03" stop-color="#3fdcd8"/><stop offset="0.24" stop-color="#319cae"/><stop offset="0.43" stop-color="#25668b"/><stop offset="0.61" stop-color="#1b3c70"/><stop offset="0.77" stop-color="#151e5c"/><stop offset="0.9" stop-color="#100c50"/><stop offset="1" stop-color="#0f054c"/></radialGradient><linearGradient id="Áåçûìÿííûé_ãðàäèåíò_3-5" x1="207.87" y1="225.98" x2="256.04" y2="225.98" gradientTransform="matrix(1, 0, 0, 1, 0, 0)" xlink:href="#Áåçûìÿííûé_ãðàäèåíò_3"/><linearGradient id="Áåçûìÿííûé_ãðàäèåíò_3-6" x1="209.62" y1="225.3" x2="254.46" y2="225.3" gradientTransform="matrix(1, 0, 0, 1, 0, 0)" xlink:href="#Áåçûìÿííûé_ãðàäèåíò_3"/><linearGradient id="Áåçûìÿííûé_ãðàäèåíò_56" x1="413.48" y1="149.08" x2="448.17" y2="163.92" gradientUnits="userSpaceOnUse"><stop offset="0" stop-color="#42e8e0"/><stop offset="0.11" stop-color="#37b6bf"/><stop offset="0.22" stop-color="#2c87a1"/><stop offset="0.34" stop-color="#235f87"/><stop offset="0.46" stop-color="#1c3f72"/><stop offset="0.58" stop-color="#162561"/><stop offset="0.71" stop-color="#121355"/><stop offset="0.85" stop-color="#10084e"/><stop offset="1" stop-color="#0f054c"/></linearGradient><filter id="luminosity-noclip-19" x="217.36" y="223.16" width="15.1" height="10.67" filterUnits="userSpaceOnUse" color-interpolation-filters="sRGB"><feFlood flood-color="#fff" result="bg"/><feBlend in="SourceGraphic" in2="bg"/></filter><mask id="mask-19" x="9.49" y="150.76" width="15.1" height="10.67" maskUnits="userSpaceOnUse"><g class="cls-117"><g transform="translate(-207.87 -72.4)"><g id="_Group_19" data-name="&lt;Group&gt;"><g class="cls-1"><path id="_Path_" data-name="&lt;Path&gt;" class="cls-2" d="M217.36,223.16v6c3.93,3.44,9.17,4.67,15.1,4.67v-3.6Z"/></g></g></g></g></mask><linearGradient id="linear-gradient-19" x1="182.78" y1="225.91" x2="240.64" y2="229.51" gradientUnits="userSpaceOnUse"><stop offset="0" stop-color="#d10b57"/><stop offset="1" stop-color="#fff"/></linearGradient><filter id="luminosity-noclip-20" x="214.37" y="208.89" width="30.64" height="18.6" filterUnits="userSpaceOnUse" color-interpolation-filters="sRGB"><feFlood flood-color="#fff" result="bg"/><feBlend in="SourceGraphic" in2="bg"/></filter><mask id="mask-20" x="6.5" y="136.49" width="30.64" height="18.6" maskUnits="userSpaceOnUse"><g class="cls-116"><g transform="translate(-207.87 -72.4)"><g id="_Group_20" data-name="&lt;Group&gt;"><g class="cls-6"><path id="_Path_2" data-name="&lt;Path&gt;" class="cls-12" d="M220.1,227.48,245,212.81c-3.16-2.39-8-3.92-13.33-3.92l-17.31,10.67C214.37,222.71,216.59,225.53,220.1,227.48Z"/></g></g></g></g></mask><linearGradient id="linear-gradient-20" x1="177.58" y1="249.07" x2="231.53" y2="215.02" xlink:href="#linear-gradient-19"/><filter id="luminosity-noclip-21" x="226.1" y="216.71" width="22.8" height="13.52" filterUnits="userSpaceOnUse" color-interpolation-filters="sRGB"><feFlood flood-color="#fff" result="bg"/><feBlend in="SourceGraphic" in2="bg"/></filter><mask id="mask-21" x="18.23" y="144.31" width="22.8" height="13.52" maskUnits="userSpaceOnUse"><g class="cls-115"><g transform="translate(-207.87 -72.4)"><g id="_Group_21" data-name="&lt;Group&gt;"><g class="cls-8"><path id="_Path_3" data-name="&lt;Path&gt;" class="cls-22" d="M231.63,230.23l.78,0,16.4-9.65a6.7,6.7,0,0,0,.08-1,6.94,6.94,0,0,0-.64-2.85l-22.15,13A27,27,0,0,0,231.63,230.23Z"/></g></g></g></g></mask><linearGradient id="linear-gradient-21" x1="207.39" y1="251.42" x2="236.72" y2="225.75" xlink:href="#linear-gradient-19"/><filter id="luminosity-noclip-22" x="218.64" y="212.13" width="26.51" height="14.86" filterUnits="userSpaceOnUse" color-interpolation-filters="sRGB"><feFlood flood-color="#fff" result="bg"/><feBlend in="SourceGraphic" in2="bg"/></filter><mask id="mask-22" x="10.77" y="139.73" width="26.51" height="14.86" maskUnits="userSpaceOnUse"><g class="cls-114"><g transform="translate(-207.87 -72.4)"><g id="_Group_22" data-name="&lt;Group&gt;"><g class="cls-10"><path id="_Path_4" data-name="&lt;Path&gt;" class="cls-23" d="M229,227l16.14-9.51c-.68-1.91-2.52-3.56-5.07-4.71a26.93,26.93,0,0,0-5.83-.64l-15.61,9.62C220.24,224.42,224.17,226.44,229,227Z"/></g></g></g></g></mask><linearGradient id="linear-gradient-22" x1="192.75" y1="244.32" x2="239.84" y2="214.6" xlink:href="#linear-gradient-19"/><filter id="luminosity-noclip-23" x="227.62" y="211.05" width="14.97" height="5.49" filterUnits="userSpaceOnUse" color-interpolation-filters="sRGB"><feFlood flood-color="#fff" result="bg"/><feBlend in="SourceGraphic" in2="bg"/></filter><mask id="mask-23" x="19.75" y="138.65" width="14.97" height="5.49" maskUnits="userSpaceOnUse"><g class="cls-113"><g transform="translate(-207.87 -72.4)"><g id="_Group_23" data-name="&lt;Group&gt;"><g class="cls-13"><path id="_Path_5" data-name="&lt;Path&gt;" class="cls-24" d="M231.65,211.05a23.07,23.07,0,0,0-4,.35v2.34a23,23,0,0,1,4-.36,18.44,18.44,0,0,1,10.93,3.15h0V214.2A18.48,18.48,0,0,0,231.65,211.05Z"/></g></g></g></g></mask><linearGradient id="linear-gradient-23" x1="219.07" y1="224.09" x2="240.97" y2="210.27" xlink:href="#linear-gradient-19"/><filter id="luminosity-noclip-24" x="221.49" y="212.64" width="20.81" height="12.08" filterUnits="userSpaceOnUse" color-interpolation-filters="sRGB"><feFlood flood-color="#fff" result="bg"/><feBlend in="SourceGraphic" in2="bg"/></filter><mask id="mask-24" x="13.62" y="140.24" width="20.81" height="12.08" maskUnits="userSpaceOnUse"><g class="cls-112"><g transform="translate(-207.87 -72.4)"><g id="_Group_24" data-name="&lt;Group&gt;"><g class="cls-3"><path id="_Compound_Path_" data-name="&lt;Compound Path&gt;" class="cls-4" d="M240.82,223.08,239,222l-.93.54-.47.27,1.76,1-1.48.85-1.76-1-1.37.78-12.92-7.53,1.37-.78-1.76-1,1.48-.85,1.76,1,1-.6.37-.2-1.77-1,1.48-.85,1.92,1.12a5,5,0,0,1,1.4-.22,7.4,7.4,0,0,1,1.83.2,6.4,6.4,0,0,1,1.81.71,3.53,3.53,0,0,1,1.3,1.18,1.3,1.3,0,0,1,.14,1.23,6.27,6.27,0,0,1,2.54-.1,7,7,0,0,1,2.43.86,4.91,4.91,0,0,1,1.41,1.18,1.88,1.88,0,0,1,.49,1.26,1.52,1.52,0,0,1-.66,1.08l1.85,1.08Zm-14.82-6,3,1.74,1.29-.74q1.15-.66,1.38-.84a.7.7,0,0,0,.33-.72,1.37,1.37,0,0,0-.72-.75,3.19,3.19,0,0,0-1.22-.43,2.35,2.35,0,0,0-1.19.16q-.34.14-1.72.94Zm5.14,3,3.46,2,1.82-1a8,8,0,0,0,1.27-.82.63.63,0,0,0,.2-.71,1.72,1.72,0,0,0-.82-.8,3.72,3.72,0,0,0-1.2-.45,3.09,3.09,0,0,0-1.21,0,8,8,0,0,0-1.93.89Z"/></g></g></g></g></mask><linearGradient id="linear-gradient-24" x1="212.48" y1="245.08" x2="230.26" y2="220.91" xlink:href="#linear-gradient-19"/><filter id="luminosity-noclip-25" x="217.36" y="217.12" width="15.1" height="10.67" filterUnits="userSpaceOnUse" color-interpolation-filters="sRGB"><feFlood flood-color="#fff" result="bg"/><feBlend in="SourceGraphic" in2="bg"/></filter><mask id="mask-25" x="9.49" y="144.72" width="15.1" height="10.67" maskUnits="userSpaceOnUse"><g class="cls-111"><g transform="translate(-207.87 -72.4)"><g id="_Group_25" data-name="&lt;Group&gt;"><g class="cls-1"><path id="_Path_6" data-name="&lt;Path&gt;" class="cls-5" d="M217.36,217.12v6c3.93,3.44,9.17,4.67,15.1,4.67v-3.6Z"/></g></g></g></g></mask><linearGradient id="linear-gradient-25" x1="182.78" y1="219.87" x2="240.64" y2="223.47" xlink:href="#linear-gradient-19"/><filter id="luminosity-noclip-26" x="214.37" y="202.85" width="30.64" height="18.6" filterUnits="userSpaceOnUse" color-interpolation-filters="sRGB"><feFlood flood-color="#fff" result="bg"/><feBlend in="SourceGraphic" in2="bg"/></filter><mask id="mask-26" x="6.5" y="130.45" width="30.64" height="18.6" maskUnits="userSpaceOnUse"><g class="cls-110"><g transform="translate(-207.87 -72.4)"><g id="_Group_26" data-name="&lt;Group&gt;"><g class="cls-6"><path id="_Path_7" data-name="&lt;Path&gt;" class="cls-7" d="M220.1,221.44,245,206.77c-3.16-2.39-8-3.92-13.33-3.92l-17.31,10.67C214.37,216.67,216.59,219.49,220.1,221.44Z"/></g></g></g></g></mask><linearGradient id="linear-gradient-26" x1="177.58" y1="243.03" x2="231.53" y2="208.98" xlink:href="#linear-gradient-19"/><filter id="luminosity-noclip-27" x="226.1" y="210.67" width="22.8" height="13.52" filterUnits="userSpaceOnUse" color-interpolation-filters="sRGB"><feFlood flood-color="#fff" result="bg"/><feBlend in="SourceGraphic" in2="bg"/></filter><mask id="mask-27" x="18.23" y="138.27" width="22.8" height="13.52" maskUnits="userSpaceOnUse"><g class="cls-109"><g transform="translate(-207.87 -72.4)"><g id="_Group_27" data-name="&lt;Group&gt;"><g class="cls-8"><path id="_Path_8" data-name="&lt;Path&gt;" class="cls-9" d="M231.63,224.19l.78,0,16.4-9.65a6.7,6.7,0,0,0,.08-1,6.94,6.94,0,0,0-.64-2.85l-22.15,13A27,27,0,0,0,231.63,224.19Z"/></g></g></g></g></mask><linearGradient id="linear-gradient-27" x1="207.39" y1="245.38" x2="236.72" y2="219.71" xlink:href="#linear-gradient-19"/><filter id="luminosity-noclip-28" x="218.64" y="206.09" width="26.51" height="14.86" filterUnits="userSpaceOnUse" color-interpolation-filters="sRGB"><feFlood flood-color="#fff" result="bg"/><feBlend in="SourceGraphic" in2="bg"/></filter><mask id="mask-28" x="10.77" y="133.69" width="26.51" height="14.86" maskUnits="userSpaceOnUse"><g class="cls-108"><g transform="translate(-207.87 -72.4)"><g id="_Group_28" data-name="&lt;Group&gt;"><g class="cls-10"><path id="_Path_9" data-name="&lt;Path&gt;" class="cls-11" d="M229,220.95l16.14-9.51c-.68-1.91-2.52-3.56-5.07-4.71a26.93,26.93,0,0,0-5.83-.64l-15.61,9.62C220.24,218.38,224.17,220.4,229,220.95Z"/></g></g></g></g></mask><linearGradient id="linear-gradient-28" x1="192.75" y1="238.28" x2="239.84" y2="208.56" xlink:href="#linear-gradient-19"/><filter id="luminosity-noclip-29" x="227.62" y="205.01" width="14.97" height="5.49" filterUnits="userSpaceOnUse" color-interpolation-filters="sRGB"><feFlood flood-color="#fff" result="bg"/><feBlend in="SourceGraphic" in2="bg"/></filter><mask id="mask-29" x="19.75" y="132.61" width="14.97" height="5.49" maskUnits="userSpaceOnUse"><g class="cls-107"><g transform="translate(-207.87 -72.4)"><g id="_Group_29" data-name="&lt;Group&gt;"><g class="cls-13"><path id="_Path_10" data-name="&lt;Path&gt;" class="cls-14" d="M231.65,205a23.07,23.07,0,0,0-4,.35v2.34a23,23,0,0,1,4-.36,18.44,18.44,0,0,1,10.93,3.15h0v-2.34A18.48,18.48,0,0,0,231.65,205Z"/></g></g></g></g></mask><linearGradient id="linear-gradient-29" x1="219.07" y1="218.05" x2="240.97" y2="204.23" xlink:href="#linear-gradient-19"/><filter id="luminosity-noclip-30" x="221.49" y="206.6" width="20.81" height="12.08" filterUnits="userSpaceOnUse" color-interpolation-filters="sRGB"><feFlood flood-color="#fff" result="bg"/><feBlend in="SourceGraphic" in2="bg"/></filter><mask id="mask-30" x="13.62" y="134.2" width="20.81" height="12.08" maskUnits="userSpaceOnUse"><g class="cls-106"><g transform="translate(-207.87 -72.4)"><g id="_Group_30" data-name="&lt;Group&gt;"><g class="cls-3"><path id="_Compound_Path_2" data-name="&lt;Compound Path&gt;" class="cls-15" d="M240.82,217,239,216l-.93.54-.47.27,1.76,1-1.48.85-1.76-1-1.37.78-12.92-7.53,1.37-.78-1.76-1,1.48-.85,1.76,1,1-.6.37-.2-1.77-1,1.48-.85,1.92,1.12a5,5,0,0,1,1.4-.22,7.4,7.4,0,0,1,1.83.2,6.4,6.4,0,0,1,1.81.71,3.53,3.53,0,0,1,1.3,1.18,1.3,1.3,0,0,1,.14,1.23,6.27,6.27,0,0,1,2.54-.1,7,7,0,0,1,2.43.86,4.91,4.91,0,0,1,1.41,1.18,1.88,1.88,0,0,1,.49,1.26,1.52,1.52,0,0,1-.66,1.08l1.85,1.08ZM226,211l3,1.74,1.29-.74q1.15-.66,1.38-.84a.7.7,0,0,0,.33-.72,1.37,1.37,0,0,0-.72-.75,3.19,3.19,0,0,0-1.22-.43,2.35,2.35,0,0,0-1.19.16q-.34.14-1.72.94Zm5.14,3,3.46,2,1.82-1a8,8,0,0,0,1.27-.82.63.63,0,0,0,.2-.71,1.72,1.72,0,0,0-.82-.8,3.72,3.72,0,0,0-1.2-.45,3.09,3.09,0,0,0-1.21,0,8,8,0,0,0-1.93.89Z"/></g></g></g></g></mask><linearGradient id="linear-gradient-30" x1="212.48" y1="239.04" x2="230.26" y2="214.87" xlink:href="#linear-gradient-19"/><filter id="luminosity-noclip-31" x="217.36" y="211.08" width="15.1" height="10.67" filterUnits="userSpaceOnUse" color-interpolation-filters="sRGB"><feFlood flood-color="#fff" result="bg"/><feBlend in="SourceGraphic" in2="bg"/></filter><mask id="mask-31" x="9.49" y="138.68" width="15.1" height="10.67" maskUnits="userSpaceOnUse"><g class="cls-105"><g transform="translate(-207.87 -72.4)"><g id="_Group_31" data-name="&lt;Group&gt;"><g class="cls-1"><path id="_Path_11" data-name="&lt;Path&gt;" class="cls-16" d="M217.36,211.08v6c3.93,3.44,9.17,4.67,15.1,4.67v-3.6Z"/></g></g></g></g></mask><linearGradient id="linear-gradient-31" x1="182.78" y1="213.83" x2="240.64" y2="217.43" xlink:href="#linear-gradient-19"/><filter id="luminosity-noclip-32" x="214.37" y="196.81" width="30.64" height="18.6" filterUnits="userSpaceOnUse" color-interpolation-filters="sRGB"><feFlood flood-color="#fff" result="bg"/><feBlend in="SourceGraphic" in2="bg"/></filter><mask id="mask-32" x="6.5" y="124.41" width="30.64" height="18.6" maskUnits="userSpaceOnUse"><g class="cls-104"><g transform="translate(-207.87 -72.4)"><g id="_Group_32" data-name="&lt;Group&gt;"><g class="cls-6"><path id="_Path_12" data-name="&lt;Path&gt;" class="cls-17" d="M220.1,215.4,245,200.73c-3.16-2.39-8-3.92-13.33-3.92l-17.31,10.67C214.37,210.63,216.59,213.45,220.1,215.4Z"/></g></g></g></g></mask><linearGradient id="linear-gradient-32" x1="177.58" y1="236.99" x2="231.53" y2="202.94" xlink:href="#linear-gradient-19"/><filter id="luminosity-noclip-33" x="226.1" y="204.63" width="22.8" height="13.52" filterUnits="userSpaceOnUse" color-interpolation-filters="sRGB"><feFlood flood-color="#fff" result="bg"/><feBlend in="SourceGraphic" in2="bg"/></filter><mask id="mask-33" x="18.23" y="132.23" width="22.8" height="13.52" maskUnits="userSpaceOnUse"><g class="cls-103"><g transform="translate(-207.87 -72.4)"><g id="_Group_33" data-name="&lt;Group&gt;"><g class="cls-8"><path id="_Path_13" data-name="&lt;Path&gt;" class="cls-18" d="M231.63,218.15l.78,0,16.4-9.65a6.7,6.7,0,0,0,.08-1,6.94,6.94,0,0,0-.64-2.85l-22.15,13A27,27,0,0,0,231.63,218.15Z"/></g></g></g></g></mask><linearGradient id="linear-gradient-33" x1="207.39" y1="239.34" x2="236.72" y2="213.67" xlink:href="#linear-gradient-19"/><filter id="luminosity-noclip-34" x="218.64" y="200.05" width="26.51" height="14.86" filterUnits="userSpaceOnUse" color-interpolation-filters="sRGB"><feFlood flood-color="#fff" result="bg"/><feBlend in="SourceGraphic" in2="bg"/></filter><mask id="mask-34" x="10.77" y="127.65" width="26.51" height="14.86" maskUnits="userSpaceOnUse"><g class="cls-102"><g transform="translate(-207.87 -72.4)"><g id="_Group_34" data-name="&lt;Group&gt;"><g class="cls-10"><path id="_Path_14" data-name="&lt;Path&gt;" class="cls-19" d="M229,214.91l16.14-9.51c-.68-1.91-2.52-3.56-5.07-4.71a26.93,26.93,0,0,0-5.83-.64l-15.61,9.62C220.24,212.34,224.17,214.36,229,214.91Z"/></g></g></g></g></mask><linearGradient id="linear-gradient-34" x1="192.75" y1="232.24" x2="239.84" y2="202.52" xlink:href="#linear-gradient-19"/><filter id="luminosity-noclip-35" x="227.62" y="198.97" width="14.97" height="5.49" filterUnits="userSpaceOnUse" color-interpolation-filters="sRGB"><feFlood flood-color="#fff" result="bg"/><feBlend in="SourceGraphic" in2="bg"/></filter><mask id="mask-35" x="19.75" y="126.57" width="14.97" height="5.49" maskUnits="userSpaceOnUse"><g class="cls-101"><g transform="translate(-207.87 -72.4)"><g id="_Group_35" data-name="&lt;Group&gt;"><g class="cls-13"><path id="_Path_15" data-name="&lt;Path&gt;" class="cls-20" d="M231.65,199a23.07,23.07,0,0,0-4,.35v2.34a23,23,0,0,1,4-.36,18.44,18.44,0,0,1,10.93,3.15h0v-2.34A18.48,18.48,0,0,0,231.65,199Z"/></g></g></g></g></mask><linearGradient id="linear-gradient-35" x1="219.07" y1="212.01" x2="240.97" y2="198.19" xlink:href="#linear-gradient-19"/><filter id="luminosity-noclip-36" x="221.49" y="200.56" width="20.81" height="12.08" filterUnits="userSpaceOnUse" color-interpolation-filters="sRGB"><feFlood flood-color="#fff" result="bg"/><feBlend in="SourceGraphic" in2="bg"/></filter><mask id="mask-36" x="13.62" y="128.16" width="20.81" height="12.08" maskUnits="userSpaceOnUse"><g class="cls-100"><g transform="translate(-207.87 -72.4)"><g id="_Group_36" data-name="&lt;Group&gt;"><g class="cls-3"><path id="_Compound_Path_3" data-name="&lt;Compound Path&gt;" class="cls-21" d="M240.82,211,239,210l-.93.54-.47.27,1.76,1-1.48.85-1.76-1-1.37.78-12.92-7.53,1.37-.78-1.76-1,1.48-.85,1.76,1,1-.6.37-.2-1.77-1,1.48-.85,1.92,1.12a5,5,0,0,1,1.4-.22,7.4,7.4,0,0,1,1.83.2,6.4,6.4,0,0,1,1.81.71,3.53,3.53,0,0,1,1.3,1.18,1.3,1.3,0,0,1,.14,1.23,6.27,6.27,0,0,1,2.54-.1,7,7,0,0,1,2.43.86,4.91,4.91,0,0,1,1.41,1.18,1.88,1.88,0,0,1,.49,1.26,1.52,1.52,0,0,1-.66,1.08l1.85,1.08ZM226,205l3,1.74,1.29-.74q1.15-.66,1.38-.84a.7.7,0,0,0,.33-.72,1.37,1.37,0,0,0-.72-.75,3.19,3.19,0,0,0-1.22-.43,2.35,2.35,0,0,0-1.19.16q-.34.14-1.72.94Zm5.14,3,3.46,2,1.82-1a8,8,0,0,0,1.27-.82.63.63,0,0,0,.2-.71,1.72,1.72,0,0,0-.82-.8,3.72,3.72,0,0,0-1.2-.45,3.09,3.09,0,0,0-1.21,0,8,8,0,0,0-1.93.89Z"/></g></g></g></g></mask><linearGradient id="linear-gradient-36" x1="212.48" y1="233" x2="230.26" y2="208.83" xlink:href="#linear-gradient-19"/></defs><title>abt-1</title><g class="cls-26"><g id="Ñëîé_1" data-name="Ñëîé 1"><path class="cls-27" d="M377.5,275.54a4.57,4.57,0,0,1-2.22-.55L273.33,216.13a1.72,1.72,0,0,1-1-1.38,1.29,1.29,0,0,1,.74-1.1l60.84-35.12a4.4,4.4,0,0,1,3.94.16l101.95,58.86a1.72,1.72,0,0,1,1,1.38,1.29,1.29,0,0,1-.74,1.1l-60.84,35.12A3.52,3.52,0,0,1,377.5,275.54Zm-104-59.71,101.95,58.86a4,4,0,0,0,3.6.16l60.84-35.12a1,1,0,0,0,.57-.79,1.4,1.4,0,0,0-.84-1.08L337.67,179a4,4,0,0,0-3.6-.16L273.24,214a1,1,0,0,0-.57.79,1.4,1.4,0,0,0,.84,1.08Z" transform="translate(-207.87 -72.4)"/><path class="cls-28" d="M440.63,228.75l-5.61-.81-97.26-56.15a4.19,4.19,0,0,0-3.77-.16l-57.92,33.44-3.56-.51v4.73h0a1.54,1.54,0,0,0,.91,1.22l101.95,58.86a4.19,4.19,0,0,0,3.77.16L440,234.4a1.1,1.1,0,0,0,.64-1h0Z" transform="translate(-207.87 -72.4)"/><path class="cls-29" d="M273.42,205.81l101.95,58.86a4.19,4.19,0,0,0,3.77.16L440,229.7c1-.56.85-1.53-.27-2.18L337.76,168.66a4.19,4.19,0,0,0-3.77-.16l-60.84,35.12C272.18,204.19,272.3,205.16,273.42,205.81Z" transform="translate(-207.87 -72.4)"/><path class="cls-30" d="M282.25,207l91.12,52.61a3.75,3.75,0,0,0,3.37.14l54.38-31.39c.86-.5.76-1.37-.24-1.95l-91.12-52.61a3.75,3.75,0,0,0-3.37-.14L282,205C281.14,205.51,281.25,206.39,282.25,207Z" transform="translate(-207.87 -72.4)"/><path class="cls-31" d="M440,229.19l-60.84,35.12a4.19,4.19,0,0,1-3.77-.16L273.42,205.3a1.75,1.75,0,0,1-.87-1c-.15.5.14,1.06.87,1.49l101.95,58.86a4.19,4.19,0,0,0,3.77.16L440,229.7a1,1,0,0,0,.6-1.2A1.24,1.24,0,0,1,440,229.19Z" transform="translate(-207.87 -72.4)"/><path class="cls-27" d="M373.93,176.36l-.16-.28,32.45-18.73-85.07-49.12a7.81,7.81,0,0,0-7.79,0l-27.66,16-.16-.28,27.66-16a8.14,8.14,0,0,1,8.11,0l85.56,49.4-.24.14Z" transform="translate(-207.87 -72.4)"/><path class="cls-32" d="M337.57,150.31l12.89-76.46-1-.44,1.56-.89h0a1.12,1.12,0,0,1,1.2.08l103,59.46a2.91,2.91,0,0,1,1.34,2.62l-13,77.07a1,1,0,0,1-.54.78h0l-1.52.88L441.2,212l.09,0-102.37-59.1A2.91,2.91,0,0,1,337.57,150.31Z" transform="translate(-207.87 -72.4)"/><path class="cls-33" d="M454.6,134.17l1.69-.75a2.33,2.33,0,0,1,.22,1.27l-13,77.07a1,1,0,0,1-.54.78h0l-1.52.88L441.2,212l.09,0-5.18-3Z" transform="translate(-207.87 -72.4)"/><path class="cls-34" d="M337.29,153.86l103,59.46c.8.46,1.48.19,1.62-.63l13-77.07a2.91,2.91,0,0,0-1.34-2.62l-103-59.46c-.8-.46-1.48-.19-1.62.63l-13,77.07A2.91,2.91,0,0,0,337.29,153.86Z" transform="translate(-207.87 -72.4)"/><g class="cls-35"><polygon class="cls-36" points="142.35 2.58 245.83 62.3 232.76 139.56 129.35 79.88 142.35 2.58"/></g><path class="cls-37" d="M272.55,190.34l5.62,2.94,56.36-32.54a4.09,4.09,0,0,1,3.68.15L435.42,217c.93-.52,5.17-2.56,5.17-2.56l-2.06,3.34h0a1.23,1.23,0,0,1-.58.64L378.59,252.7a4.09,4.09,0,0,1-3.68-.15l-99.47-57.43a1.78,1.78,0,0,1-.83-.89h0Z" transform="translate(-207.87 -72.4)"/><path class="cls-38" d="M273.42,191.27l101.95,58.86a4.19,4.19,0,0,0,3.77.16L440,215.16c1-.56.85-1.53-.27-2.18L337.76,154.12A4.19,4.19,0,0,0,334,154l-60.84,35.12C272.18,189.65,272.3,190.62,273.42,191.27Z" transform="translate(-207.87 -72.4)"/><path class="cls-31" d="M273.42,190.81l101.95,58.86a4.19,4.19,0,0,0,3.77.16L440,214.7a1.23,1.23,0,0,0,.61-.71,1,1,0,0,1-.61,1.17l-60.84,35.12a4.19,4.19,0,0,1-3.77-.16L273.42,191.27c-.72-.42-1-1-.88-1.46A1.72,1.72,0,0,0,273.42,190.81Z" transform="translate(-207.87 -72.4)"/><g class="cls-39"><g class="cls-40"><path class="cls-41" d="M337.17,153.36l5.62,2.94,56.36-32.54a4.09,4.09,0,0,1,3.68.15L500,180c.93-.52,5.17-2.56,5.17-2.56l-2.06,3.34h0a1.23,1.23,0,0,1-.58.64l-59.36,34.27a4.09,4.09,0,0,1-3.68-.15l-99.47-57.43a1.78,1.78,0,0,1-.83-.89h0Z" transform="translate(-207.87 -72.4)"/><path class="cls-42" d="M338,154.28,440,213.14a4.19,4.19,0,0,0,3.77.16l60.84-35.12c1-.56.85-1.53-.27-2.18L402.37,117.14a4.19,4.19,0,0,0-3.77-.16l-60.84,35.12C336.8,152.67,336.92,153.64,338,154.28Z" transform="translate(-207.87 -72.4)"/><path class="cls-31" d="M504.32,176,402.37,117.14a4.45,4.45,0,0,0-2.52-.51,4.26,4.26,0,0,1,1.77.51L503.57,176c1.12.64,1.24,1.62.27,2.18L443,213.3a3.08,3.08,0,0,1-1.25.36,3.57,3.57,0,0,0,2-.36l60.84-35.12C505.56,177.62,505.44,176.64,504.32,176Z" transform="translate(-207.87 -72.4)"/><g class="cls-43"><path class="cls-34" d="M391.44,144.15l-3.27-1.89a1.09,1.09,0,0,0-1,0l-3.63,2.12c-.29.17-.3.42,0,.58l3.27,1.89a1.09,1.09,0,0,0,1,0l3.63-2.12C391.68,144.56,391.7,144.3,391.44,144.15Z" transform="translate(-207.87 -72.4)"/><path class="cls-34" d="M396.48,147.07l-3.27-1.89a1.09,1.09,0,0,0-1,0l-3.63,2.12c-.29.17-.3.42,0,.58l3.27,1.89a1.09,1.09,0,0,0,1,0l3.63-2.12C396.73,147.48,396.75,147.22,396.48,147.07Z" transform="translate(-207.87 -72.4)"/><path class="cls-34" d="M401.53,150l-3.27-1.89a1.09,1.09,0,0,0-1,0l-3.63,2.12c-.29.17-.3.42,0,.58l3.27,1.89a1.09,1.09,0,0,0,1,0l3.63-2.12C401.78,150.39,401.79,150.13,401.53,150Z" transform="translate(-207.87 -72.4)"/><path class="cls-34" d="M397.69,153.86,394.42,152a1.09,1.09,0,0,0-1,0l-3,1.78c-.29.17-.3.42,0,.58l3.27,1.89a1.09,1.09,0,0,0,1,0l3-1.78C397.93,154.27,398,154,397.69,153.86Z" transform="translate(-207.87 -72.4)"/><path class="cls-34" d="M402.74,156.77l-3.27-1.89a1.09,1.09,0,0,0-1,0l-3,1.78c-.29.17-.3.42,0,.58l3.27,1.89a1.09,1.09,0,0,0,1,0l3-1.78C403,157.18,403,156.92,402.74,156.77Z" transform="translate(-207.87 -72.4)"/><path class="cls-34" d="M407.78,159.68l-3.27-1.89a1.09,1.09,0,0,0-1,0l-3,1.78c-.29.17-.3.42,0,.58l3.27,1.89a1.09,1.09,0,0,0,1,0l3-1.78C408,160.09,408,159.84,407.78,159.68Z" transform="translate(-207.87 -72.4)"/><path class="cls-34" d="M412.83,162.6l-3.27-1.89a1.09,1.09,0,0,0-1,0l-3,1.78c-.29.17-.3.42,0,.58l3.27,1.89a1.09,1.09,0,0,0,1,0l3-1.78C413.07,163,413.09,162.75,412.83,162.6Z" transform="translate(-207.87 -72.4)"/><path class="cls-34" d="M417.88,165.51l-3.27-1.89a1.09,1.09,0,0,0-1,0l-3,1.78c-.29.17-.3.42,0,.58l3.27,1.89a1.09,1.09,0,0,0,1,0l3-1.78C418.12,165.92,418.14,165.66,417.88,165.51Z" transform="translate(-207.87 -72.4)"/><path class="cls-34" d="M422.92,168.43l-3.27-1.89a1.09,1.09,0,0,0-1,0l-3,1.78c-.29.17-.3.42,0,.58l3.27,1.89a1.09,1.09,0,0,0,1,0l3-1.78C423.17,168.84,423.18,168.58,422.92,168.43Z" transform="translate(-207.87 -72.4)"/><path class="cls-34" d="M428,171.34l-3.27-1.89a1.09,1.09,0,0,0-1,0l-3,1.78c-.29.17-.3.42,0,.58l3.27,1.89a1.09,1.09,0,0,0,1,0l3-1.78C428.21,171.75,428.23,171.49,428,171.34Z" transform="translate(-207.87 -72.4)"/><path class="cls-34" d="M433,174.25l-3.27-1.89a1.09,1.09,0,0,0-1,0l-3,1.78c-.29.17-.3.42,0,.58l3.27,1.89a1.09,1.09,0,0,0,1,0l3-1.78C433.26,174.66,433.28,174.4,433,174.25Z" transform="translate(-207.87 -72.4)"/><path class="cls-34" d="M438.06,177.17l-3.27-1.89a1.09,1.09,0,0,0-1,0l-3,1.78c-.29.17-.3.42,0,.58l3.27,1.89a1.09,1.09,0,0,0,1,0l3-1.78C438.31,177.58,438.32,177.32,438.06,177.17Z" transform="translate(-207.87 -72.4)"/><path class="cls-34" d="M443.11,180.08l-3.27-1.89a1.09,1.09,0,0,0-1,0l-3,1.78c-.29.17-.3.42,0,.58l3.27,1.89a1.09,1.09,0,0,0,1,0l3-1.78C443.35,180.49,443.37,180.23,443.11,180.08Z" transform="translate(-207.87 -72.4)"/><path class="cls-34" d="M395.59,158l-3.27-1.89a1.09,1.09,0,0,0-1,0l-3,1.78c-.29.17-.3.42,0,.58l3.27,1.89a1.09,1.09,0,0,0,1,0l3-1.78C395.83,158.43,395.85,158.17,395.59,158Z" transform="translate(-207.87 -72.4)"/><path class="cls-34" d="M390.46,155.06l-3.27-1.89a1.09,1.09,0,0,0-1,0l-3,1.78c-.29.17-.3.42,0,.58l3.27,1.89a1.09,1.09,0,0,0,1,0l3-1.78C390.71,155.47,390.73,155.21,390.46,155.06Z" transform="translate(-207.87 -72.4)"/><path class="cls-34" d="M385.33,152.1l-7-4.06a1.09,1.09,0,0,0-1,0l-3,1.78c-.29.17-.3.42,0,.58l7,4.06a1.09,1.09,0,0,0,1,0l3-1.78C385.58,152.51,385.6,152.25,385.33,152.1Z" transform="translate(-207.87 -72.4)"/><path class="cls-34" d="M379.38,154l-5.71-3.3a1.09,1.09,0,0,0-1,0l-3,1.78c-.29.17-.3.42,0,.58l5.71,3.3a1.09,1.09,0,0,0,1,0l3-1.78C379.63,154.44,379.64,154.19,379.38,154Z" transform="translate(-207.87 -72.4)"/><path class="cls-34" d="M400.63,160.93,397.37,159a1.09,1.09,0,0,0-1,0l-3,1.78c-.29.17-.3.42,0,.58l3.27,1.89a1.09,1.09,0,0,0,1,0l3-1.78C400.88,161.34,400.9,161.08,400.63,160.93Z" transform="translate(-207.87 -72.4)"/><path class="cls-34" d="M405.68,163.84,402.41,162a1.09,1.09,0,0,0-1,0l-3,1.78c-.29.17-.3.42,0,.58l3.27,1.89a1.09,1.09,0,0,0,1,0l3-1.78C405.92,164.25,405.94,164,405.68,163.84Z" transform="translate(-207.87 -72.4)"/><path class="cls-34" d="M410.73,166.76l-3.27-1.89a1.09,1.09,0,0,0-1,0l-3,1.78c-.29.17-.3.42,0,.58l3.27,1.89a1.09,1.09,0,0,0,1,0l3-1.78C411,167.17,411,166.91,410.73,166.76Z" transform="translate(-207.87 -72.4)"/><path class="cls-34" d="M415.77,169.67l-3.27-1.89a1.09,1.09,0,0,0-1,0l-3,1.78c-.29.17-.3.42,0,.58l3.27,1.89a1.09,1.09,0,0,0,1,0l3-1.78C416,170.08,416,169.82,415.77,169.67Z" transform="translate(-207.87 -72.4)"/><path class="cls-34" d="M420.82,172.58l-3.27-1.89a1.09,1.09,0,0,0-1,0l-3,1.78c-.29.17-.3.42,0,.58l3.27,1.89a1.09,1.09,0,0,0,1,0l3-1.78C421.06,173,421.08,172.74,420.82,172.58Z" transform="translate(-207.87 -72.4)"/><path class="cls-34" d="M425.87,175.5l-3.27-1.89a1.09,1.09,0,0,0-1,0l-3,1.78c-.29.17-.3.42,0,.58l3.27,1.89a1.09,1.09,0,0,0,1,0l3-1.78C426.11,175.91,426.13,175.65,425.87,175.5Z" transform="translate(-207.87 -72.4)"/><path class="cls-34" d="M430.91,178.41l-3.27-1.89a1.09,1.09,0,0,0-1,0l-3,1.78c-.29.17-.3.42,0,.58l3.27,1.89a1.09,1.09,0,0,0,1,0l3-1.78C431.16,178.82,431.18,178.56,430.91,178.41Z" transform="translate(-207.87 -72.4)"/><path class="cls-34" d="M436,181.33l-3.27-1.89a1.09,1.09,0,0,0-1,0l-3,1.78c-.29.17-.3.42,0,.58l3.27,1.89a1.09,1.09,0,0,0,1,0l3-1.78C436.2,181.74,436.22,181.48,436,181.33Z" transform="translate(-207.87 -72.4)"/><path class="cls-34" d="M441,184.24l-3.27-1.89a1.09,1.09,0,0,0-1,0l-3,1.78c-.29.17-.3.42,0,.58l3.27,1.89a1.09,1.09,0,0,0,1,0l3-1.78C441.25,184.65,441.27,184.39,441,184.24Z" transform="translate(-207.87 -72.4)"/><path class="cls-34" d="M450,189.42l-7.13-4.12a1.09,1.09,0,0,0-1,0l-3,1.78c-.29.17-.3.42,0,.58l7.13,4.12a1.09,1.09,0,0,0,1,0l3-1.78C450.22,189.83,450.24,189.57,450,189.42Z" transform="translate(-207.87 -72.4)"/><path class="cls-34" d="M440.73,194.82l-6-3.47a1.09,1.09,0,0,0-1,0l-3,1.78c-.29.17-.3.42,0,.58l6,3.47a1.09,1.09,0,0,0,1,0l3-1.78C441,195.23,441,195,440.73,194.82Z" transform="translate(-207.87 -72.4)"/><path class="cls-34" d="M399.93,165.9,396.67,164a1.09,1.09,0,0,0-1,0l-3,1.78c-.29.17-.3.42,0,.58l3.27,1.89a1.09,1.09,0,0,0,1,0l3-1.78C400.18,166.31,400.2,166.05,399.93,165.9Z" transform="translate(-207.87 -72.4)"/><path class="cls-34" d="M394.76,162.91,391.49,161a1.09,1.09,0,0,0-1,0l-3,1.78c-.29.17-.3.42,0,.58l3.27,1.89a1.09,1.09,0,0,0,1,0l3-1.78C395,163.32,395,163.06,394.76,162.91Z" transform="translate(-207.87 -72.4)"/><path class="cls-34" d="M389.59,159.93,386.32,158a1.09,1.09,0,0,0-1,0l-3,1.78c-.29.17-.3.42,0,.58l3.27,1.89a1.09,1.09,0,0,0,1,0l3-1.78C389.83,160.34,389.85,160.08,389.59,159.93Z" transform="translate(-207.87 -72.4)"/><path class="cls-34" d="M384.42,156.94l-3.27-1.89a1.09,1.09,0,0,0-1,0l-3,1.78c-.29.17-.3.42,0,.58l3.27,1.89a1.09,1.09,0,0,0,1,0l3-1.78C384.66,157.35,384.68,157.09,384.42,156.94Z" transform="translate(-207.87 -72.4)"/><path class="cls-34" d="M405,168.81l-3.27-1.89a1.09,1.09,0,0,0-1,0l-3,1.78c-.29.17-.3.42,0,.58l3.27,1.89a1.09,1.09,0,0,0,1,0l3-1.78C405.22,169.22,405.24,169,405,168.81Z" transform="translate(-207.87 -72.4)"/><path class="cls-34" d="M410,171.73l-3.27-1.89a1.09,1.09,0,0,0-1,0l-3,1.78c-.29.17-.3.42,0,.58l3.27,1.89a1.09,1.09,0,0,0,1,0l3-1.78C410.27,172.14,410.29,171.88,410,171.73Z" transform="translate(-207.87 -72.4)"/><path class="cls-34" d="M415.07,174.64l-3.27-1.89a1.09,1.09,0,0,0-1,0l-3,1.78c-.29.17-.3.42,0,.58L411,177a1.09,1.09,0,0,0,1,0l3-1.78C415.32,175,415.34,174.79,415.07,174.64Z" transform="translate(-207.87 -72.4)"/><path class="cls-34" d="M420.12,177.55l-3.27-1.89a1.09,1.09,0,0,0-1,0l-3,1.78c-.29.17-.3.42,0,.58l3.27,1.89a1.09,1.09,0,0,0,1,0l3-1.78C420.36,178,420.38,177.71,420.12,177.55Z" transform="translate(-207.87 -72.4)"/><path class="cls-34" d="M425.17,180.47l-3.27-1.89a1.09,1.09,0,0,0-1,0l-3,1.78c-.29.17-.3.42,0,.58l3.27,1.89a1.09,1.09,0,0,0,1,0l3-1.78C425.41,180.88,425.43,180.62,425.17,180.47Z" transform="translate(-207.87 -72.4)"/><path class="cls-34" d="M430.21,183.38l-3.27-1.89a1.09,1.09,0,0,0-1,0l-3,1.78c-.29.17-.3.42,0,.58l3.27,1.89a1.09,1.09,0,0,0,1,0l3-1.78C430.46,183.79,430.48,183.53,430.21,183.38Z" transform="translate(-207.87 -72.4)"/><path class="cls-34" d="M435.26,186.29,432,184.41a1.09,1.09,0,0,0-1,0l-3,1.78c-.29.17-.3.42,0,.58l3.27,1.89a1.09,1.09,0,0,0,1,0l3-1.78C435.5,186.7,435.52,186.45,435.26,186.29Z" transform="translate(-207.87 -72.4)"/><path class="cls-34" d="M440.31,189.21,437,187.32a1.09,1.09,0,0,0-1,0l-3,1.78c-.29.17-.3.42,0,.58l3.27,1.89a1.09,1.09,0,0,0,1,0l3-1.78C440.55,189.62,440.57,189.36,440.31,189.21Z" transform="translate(-207.87 -72.4)"/><path class="cls-34" d="M445.35,192.12l-3.27-1.89a1.09,1.09,0,0,0-1,0L438,192c-.29.17-.3.42,0,.58l3.27,1.89a1.09,1.09,0,0,0,1,0l3-1.78C445.6,192.53,445.62,192.27,445.35,192.12Z" transform="translate(-207.87 -72.4)"/><path class="cls-34" d="M387.74,164.23l-3.27-1.89a1.09,1.09,0,0,0-1,0l-3,1.78c-.29.17-.3.42,0,.58l3.27,1.89a1.09,1.09,0,0,0,1,0l3-1.78C388,164.64,388,164.38,387.74,164.23Z" transform="translate(-207.87 -72.4)"/><path class="cls-34" d="M382.72,161.33l-3.27-1.89a1.09,1.09,0,0,0-1,0l-3,1.78c-.29.17-.3.42,0,.58l3.27,1.89a1.09,1.09,0,0,0,1,0l3-1.78C383,161.74,383,161.48,382.72,161.33Z" transform="translate(-207.87 -72.4)"/><path class="cls-34" d="M377.69,158.43l-3.27-1.89a1.09,1.09,0,0,0-1,0l-3,1.78c-.29.17-.3.42,0,.58l3.27,1.89a1.09,1.09,0,0,0,1,0l3-1.78C377.94,158.84,378,158.58,377.69,158.43Z" transform="translate(-207.87 -72.4)"/><path class="cls-34" d="M372.67,155.53l-3.27-1.89a1.09,1.09,0,0,0-1,0l-3,1.78c-.29.17-.3.42,0,.58l3.27,1.89a1.09,1.09,0,0,0,1,0l3-1.78C372.92,155.94,372.94,155.68,372.67,155.53Z" transform="translate(-207.87 -72.4)"/><path class="cls-34" d="M367.81,158.37l-3.27-1.89a1.09,1.09,0,0,0-1,0l-1,.59c-.29.17-.3.42,0,.58l3.27,1.89a1.09,1.09,0,0,0,1,0l1-.59C368.05,158.78,368.07,158.53,367.81,158.37Z" transform="translate(-207.87 -72.4)"/><path class="cls-34" d="M374.36,162.16l-3.27-1.89a1.09,1.09,0,0,0-1,0l-1,.59c-.29.17-.3.42,0,.58l3.27,1.89a1.09,1.09,0,0,0,1,0l1-.59C374.61,162.57,374.63,162.31,374.36,162.16Z" transform="translate(-207.87 -72.4)"/><path class="cls-34" d="M379.36,165l-3.27-1.89a1.09,1.09,0,0,0-1,0l-1,.59c-.29.17-.3.42,0,.58l3.27,1.89a1.09,1.09,0,0,0,1,0l1-.59C379.61,165.45,379.63,165.2,379.36,165Z" transform="translate(-207.87 -72.4)"/><path class="cls-34" d="M384.36,167.93,381.1,166a1.09,1.09,0,0,0-1,0l-1,.59c-.29.17-.3.42,0,.58l3.27,1.89a1.09,1.09,0,0,0,1,0l1-.59C384.61,168.34,384.63,168.08,384.36,167.93Z" transform="translate(-207.87 -72.4)"/><path class="cls-34" d="M389.37,170.82l-3.27-1.89a1.09,1.09,0,0,0-1,0l-1,.59c-.29.17-.3.42,0,.58l3.27,1.89a1.09,1.09,0,0,0,1,0l1-.59C389.61,171.23,389.63,171,389.37,170.82Z" transform="translate(-207.87 -72.4)"/><path class="cls-34" d="M417.28,186.94,414,185.05a1.09,1.09,0,0,0-1,0l-1,.59c-.29.17-.3.42,0,.58l3.27,1.89a1.09,1.09,0,0,0,1,0l1-.59C417.53,187.35,417.55,187.09,417.28,186.94Z" transform="translate(-207.87 -72.4)"/><path class="cls-34" d="M422.28,189.82,419,187.94a1.09,1.09,0,0,0-1,0l-1,.59c-.29.17-.3.42,0,.58l3.27,1.89a1.09,1.09,0,0,0,1,0l1-.59C422.53,190.23,422.55,190,422.28,189.82Z" transform="translate(-207.87 -72.4)"/><path class="cls-34" d="M427.28,192.71,424,190.82a1.09,1.09,0,0,0-1,0l-1,.59c-.29.17-.3.42,0,.58l3.27,1.89a1.09,1.09,0,0,0,1,0l1-.59C427.53,193.12,427.55,192.86,427.28,192.71Z" transform="translate(-207.87 -72.4)"/><path class="cls-34" d="M432.28,195.6,429,193.71a1.09,1.09,0,0,0-1,0l-1,.59c-.29.17-.3.42,0,.58l3.27,1.89a1.09,1.09,0,0,0,1,0l1-.59C432.53,196,432.55,195.75,432.28,195.6Z" transform="translate(-207.87 -72.4)"/><path class="cls-34" d="M392.78,167.14l-3.27-1.89a1.09,1.09,0,0,0-1,0l-3,1.78c-.29.17-.3.42,0,.58l3.27,1.89a1.09,1.09,0,0,0,1,0l3-1.78C393,167.55,393,167.3,392.78,167.14Z" transform="translate(-207.87 -72.4)"/><path class="cls-34" d="M397.83,170.06l-3.27-1.89a1.09,1.09,0,0,0-1,0l-3,1.78c-.29.17-.3.42,0,.58l3.27,1.89a1.09,1.09,0,0,0,1,0l3-1.78C398.07,170.47,398.09,170.21,397.83,170.06Z" transform="translate(-207.87 -72.4)"/><path class="cls-34" d="M402.88,173l-3.27-1.89a1.09,1.09,0,0,0-1,0l-3,1.78c-.29.17-.3.42,0,.58l3.27,1.89a1.09,1.09,0,0,0,1,0l3-1.78C403.12,173.38,403.14,173.12,402.88,173Z" transform="translate(-207.87 -72.4)"/><path class="cls-34" d="M407.92,175.89,404.66,174a1.09,1.09,0,0,0-1,0l-3,1.78c-.29.17-.3.42,0,.58l3.27,1.89a1.09,1.09,0,0,0,1,0l3-1.78C408.17,176.29,408.19,176,407.92,175.89Z" transform="translate(-207.87 -72.4)"/><path class="cls-34" d="M413,178.8l-3.27-1.89a1.09,1.09,0,0,0-1,0l-3,1.78c-.29.17-.3.42,0,.58l3.27,1.89a1.09,1.09,0,0,0,1,0l3-1.78C413.21,179.21,413.23,179,413,178.8Z" transform="translate(-207.87 -72.4)"/><path class="cls-34" d="M418,181.71l-3.27-1.89a1.09,1.09,0,0,0-1,0l-3,1.78c-.29.17-.3.42,0,.58l3.27,1.89a1.09,1.09,0,0,0,1,0l3-1.78C418.26,182.12,418.28,181.86,418,181.71Z" transform="translate(-207.87 -72.4)"/><path class="cls-34" d="M423.06,184.63l-3.27-1.89a1.09,1.09,0,0,0-1,0l-3,1.78c-.29.17-.3.42,0,.58L419,187a1.09,1.09,0,0,0,1,0l3-1.78C423.31,185,423.33,184.78,423.06,184.63Z" transform="translate(-207.87 -72.4)"/><path class="cls-34" d="M428.11,187.54l-3.27-1.89a1.09,1.09,0,0,0-1,0l-3,1.78c-.29.17-.3.42,0,.58l3.27,1.89a1.09,1.09,0,0,0,1,0l3-1.78C428.35,187.95,428.37,187.69,428.11,187.54Z" transform="translate(-207.87 -72.4)"/><path class="cls-34" d="M433.16,190.45l-3.27-1.89a1.09,1.09,0,0,0-1,0l-3,1.78c-.29.17-.3.42,0,.58l3.27,1.89a1.09,1.09,0,0,0,1,0l3-1.78C433.4,190.86,433.42,190.61,433.16,190.45Z" transform="translate(-207.87 -72.4)"/><path class="cls-34" d="M392.55,150.89l-9.62-5.56a1.09,1.09,0,0,0-1,0l-3,1.78c-.29.17-.3.42,0,.58l9.62,5.56a1.09,1.09,0,0,0,1,0l3-1.78C392.79,151.3,392.81,151,392.55,150.89Z" transform="translate(-207.87 -72.4)"/><path class="cls-34" d="M454.55,186.68l-9.62-5.56a1.09,1.09,0,0,0-1,0l-3,1.78c-.29.17-.3.42,0,.58l9.62,5.56a1.09,1.09,0,0,0,1,0l3-1.78C454.79,187.09,454.81,186.83,454.55,186.68Z" transform="translate(-207.87 -72.4)"/><path class="cls-34" d="M445.19,175.18l-3.27-1.89a1.09,1.09,0,0,0-1,0l-3.63,2.12c-.29.17-.3.42,0,.58l3.27,1.89a1.09,1.09,0,0,0,1,0l3.63-2.12C445.43,175.59,445.45,175.33,445.19,175.18Z" transform="translate(-207.87 -72.4)"/><path class="cls-34" d="M408.54,154l-5.23-3a1.09,1.09,0,0,0-1,0l-3.63,2.12c-.29.17-.3.42,0,.58l5.23,3a1.09,1.09,0,0,0,1,0l3.63-2.12C408.78,154.43,408.8,154.18,408.54,154Z" transform="translate(-207.87 -72.4)"/><path class="cls-34" d="M440.32,172.38l-5.23-3a1.09,1.09,0,0,0-1,0l-3.63,2.12c-.29.17-.3.42,0,.58l5.23,3a1.09,1.09,0,0,0,1,0l3.63-2.12C440.57,172.78,440.58,172.53,440.32,172.38Z" transform="translate(-207.87 -72.4)"/><path class="cls-34" d="M415.82,158.23l-5.23-3a1.09,1.09,0,0,0-1,0L406,157.36c-.29.17-.3.42,0,.58l5.23,3a1.09,1.09,0,0,0,1,0l3.63-2.12C416.06,158.64,416.08,158.38,415.82,158.23Z" transform="translate(-207.87 -72.4)"/><path class="cls-34" d="M406,158l22.72,13.12a1.09,1.09,0,0,0,1,0l3.7-2.16c.27-.16.25-.41,0-.58l-22.72-13.12Z" transform="translate(-207.87 -72.4)"/><path class="cls-34" d="M454.48,183.26l3.64,2.1a.9.9,0,0,0,.81,0l1.49-.87c.23-.14.25-.35,0-.47l-3.64-2.1a.9.9,0,0,0-.81,0l-1.49.87C454.28,182.92,454.26,183.13,454.48,183.26Z" transform="translate(-207.87 -72.4)"/><path class="cls-34" d="M449.39,180.32l3.64,2.1a.9.9,0,0,0,.81,0l1.49-.87c.23-.14.25-.35,0-.47l-3.64-2.1a.9.9,0,0,0-.81,0l-1.49.87C449.19,180,449.18,180.2,449.39,180.32Z" transform="translate(-207.87 -72.4)"/><path class="cls-34" d="M444.34,177.41l3.64,2.1a.9.9,0,0,0,.81,0l1.49-.87c.23-.14.25-.35,0-.47l-3.64-2.1a.9.9,0,0,0-.81,0l-1.49.87C444.14,177.07,444.13,177.28,444.34,177.41Z" transform="translate(-207.87 -72.4)"/><path class="cls-34" d="M446.77,181.85l3.64,2.1a.9.9,0,0,0,.81,0l1.49-.87c.23-.14.25-.35,0-.47l-3.64-2.1a.9.9,0,0,0-.81,0l-1.49.87C446.57,181.52,446.55,181.73,446.77,181.85Z" transform="translate(-207.87 -72.4)"/></g></g></g><g class="cls-44"><path class="cls-34" d="M320.32,184.75l-3.24-1.87c-.26-.15-.23-.41.07-.59l3.82-2.21a1.13,1.13,0,0,1,1,0l3.24,1.87c.26.15.23.41-.07.59l-3.82,2.21A1.13,1.13,0,0,1,320.32,184.75Z" transform="translate(-207.87 -72.4)"/><path class="cls-34" d="M325.31,187.63l-3.24-1.87c-.26-.15-.23-.41.07-.59L326,183a1.13,1.13,0,0,1,1,0l3.24,1.87c.26.15.23.41-.07.59l-3.82,2.21A1.13,1.13,0,0,1,325.31,187.63Z" transform="translate(-207.87 -72.4)"/><path class="cls-34" d="M330.31,190.52l-3.24-1.87c-.26-.15-.23-.41.07-.59l3.82-2.21a1.13,1.13,0,0,1,1,0l3.24,1.87c.26.15.23.41-.07.59l-3.82,2.21A1.13,1.13,0,0,1,330.31,190.52Z" transform="translate(-207.87 -72.4)"/><path class="cls-34" d="M337.22,188.14,334,186.27c-.26-.15-.23-.41.07-.59l3.21-1.85a1.13,1.13,0,0,1,1,0l3.24,1.87c.26.15.23.41-.07.59l-3.21,1.85A1.13,1.13,0,0,1,337.22,188.14Z" transform="translate(-207.87 -72.4)"/><path class="cls-34" d="M342.22,191,339,189.15c-.26-.15-.23-.41.07-.59l3.21-1.85a1.13,1.13,0,0,1,1,0l3.24,1.87c.26.15.23.41-.07.59L343.24,191A1.13,1.13,0,0,1,342.22,191Z" transform="translate(-207.87 -72.4)"/><path class="cls-34" d="M347.22,193.91,344,192c-.26-.15-.23-.41.07-.59l3.21-1.85a1.13,1.13,0,0,1,1,0l3.24,1.87c.26.15.23.41-.07.59l-3.21,1.85A1.13,1.13,0,0,1,347.22,193.91Z" transform="translate(-207.87 -72.4)"/><path class="cls-34" d="M352.22,196.79,349,194.93c-.26-.15-.23-.41.07-.59l3.21-1.85a1.13,1.13,0,0,1,1,0l3.24,1.87c.26.15.23.41-.07.59l-3.21,1.85A1.13,1.13,0,0,1,352.22,196.79Z" transform="translate(-207.87 -72.4)"/><path class="cls-34" d="M357.22,199.68,354,197.81c-.26-.15-.23-.41.07-.59l3.21-1.85a1.13,1.13,0,0,1,1,0l3.24,1.87c.26.15.23.41-.07.59l-3.21,1.85A1.13,1.13,0,0,1,357.22,199.68Z" transform="translate(-207.87 -72.4)"/><path class="cls-34" d="M362.21,202.57,359,200.7c-.26-.15-.23-.41.07-.59l3.21-1.85a1.13,1.13,0,0,1,1,0l3.24,1.87c.26.15.23.41-.07.59l-3.21,1.85A1.13,1.13,0,0,1,362.21,202.57Z" transform="translate(-207.87 -72.4)"/><path class="cls-34" d="M367.21,205.45,364,203.58c-.26-.15-.23-.41.07-.59l3.21-1.85a1.13,1.13,0,0,1,1,0L371.5,203c.26.15.23.41-.07.59l-3.21,1.85A1.13,1.13,0,0,1,367.21,205.45Z" transform="translate(-207.87 -72.4)"/><path class="cls-34" d="M372.21,208.34,369,206.47c-.26-.15-.23-.41.07-.59l3.21-1.85a1.13,1.13,0,0,1,1,0l3.24,1.87c.26.15.23.41-.07.59l-3.21,1.85A1.13,1.13,0,0,1,372.21,208.34Z" transform="translate(-207.87 -72.4)"/><path class="cls-34" d="M377.21,211.22,374,209.35c-.26-.15-.23-.41.07-.59l3.21-1.85a1.13,1.13,0,0,1,1,0l3.24,1.87c.26.15.23.41-.07.59l-3.21,1.85A1.13,1.13,0,0,1,377.21,211.22Z" transform="translate(-207.87 -72.4)"/><path class="cls-34" d="M382.21,214.11,379,212.24c-.26-.15-.23-.41.07-.59l3.21-1.85a1.13,1.13,0,0,1,1,0l3.24,1.87c.26.15.23.41-.07.59l-3.21,1.85A1.13,1.13,0,0,1,382.21,214.11Z" transform="translate(-207.87 -72.4)"/><path class="cls-34" d="M344.59,186.77l-3.24-1.87c-.26-.15-.23-.41.07-.59l3.21-1.85a1.13,1.13,0,0,1,1,0l3.24,1.87c.26.15.23.41-.07.59l-3.21,1.85A1.13,1.13,0,0,1,344.59,186.77Z" transform="translate(-207.87 -72.4)"/><path class="cls-34" d="M339.52,183.84,336.28,182c-.26-.15-.23-.41.07-.59l3.21-1.85a1.13,1.13,0,0,1,1,0l3.24,1.87c.26.15.23.41-.07.59l-3.21,1.85A1.13,1.13,0,0,1,339.52,183.84Z" transform="translate(-207.87 -72.4)"/><path class="cls-34" d="M334.43,180.91l-7-4c-.26-.15-.23-.41.07-.59l3.21-1.85a1.13,1.13,0,0,1,1,0l7,4c.26.15.23.41-.07.59l-3.21,1.85A1.13,1.13,0,0,1,334.43,180.91Z" transform="translate(-207.87 -72.4)"/><path class="cls-34" d="M338,177.34l-5.66-3.27c-.26-.15-.23-.41.07-.59l3.21-1.85a1.13,1.13,0,0,1,1,0l5.66,3.27c.26.15.23.41-.07.59L339,177.3A1.13,1.13,0,0,1,338,177.34Z" transform="translate(-207.87 -72.4)"/><path class="cls-34" d="M349.59,189.66l-3.24-1.87c-.26-.15-.23-.41.07-.59l3.21-1.85a1.13,1.13,0,0,1,1,0l3.24,1.87c.26.15.23.41-.07.59l-3.21,1.85A1.13,1.13,0,0,1,349.59,189.66Z" transform="translate(-207.87 -72.4)"/><path class="cls-34" d="M354.58,192.54l-3.24-1.87c-.26-.15-.23-.41.07-.59l3.21-1.85a1.13,1.13,0,0,1,1,0l3.24,1.87c.26.15.23.41-.07.59l-3.21,1.85A1.13,1.13,0,0,1,354.58,192.54Z" transform="translate(-207.87 -72.4)"/><path class="cls-34" d="M359.58,195.43l-3.24-1.87c-.26-.15-.23-.41.07-.59l3.21-1.85a1.13,1.13,0,0,1,1,0l3.24,1.87c.26.15.23.41-.07.59l-3.21,1.85A1.13,1.13,0,0,1,359.58,195.43Z" transform="translate(-207.87 -72.4)"/><path class="cls-34" d="M364.58,198.31l-3.24-1.87c-.26-.15-.23-.41.07-.59l3.21-1.85a1.13,1.13,0,0,1,1,0l3.24,1.87c.26.15.23.41-.07.59l-3.21,1.85A1.13,1.13,0,0,1,364.58,198.31Z" transform="translate(-207.87 -72.4)"/><path class="cls-34" d="M369.58,201.2l-3.24-1.87c-.26-.15-.23-.41.07-.59l3.21-1.85a1.13,1.13,0,0,1,1,0l3.24,1.87c.26.15.23.41-.07.59l-3.21,1.85A1.13,1.13,0,0,1,369.58,201.2Z" transform="translate(-207.87 -72.4)"/><path class="cls-34" d="M374.58,204.08l-3.24-1.87c-.26-.15-.23-.41.07-.59l3.21-1.85a1.13,1.13,0,0,1,1,0l3.24,1.87c.26.15.23.41-.07.59L375.59,204A1.13,1.13,0,0,1,374.58,204.08Z" transform="translate(-207.87 -72.4)"/><path class="cls-34" d="M379.57,207l-3.24-1.87c-.26-.15-.23-.41.07-.59l3.21-1.85a1.13,1.13,0,0,1,1,0l3.24,1.87c.26.15.23.41-.07.59l-3.21,1.85A1.13,1.13,0,0,1,379.57,207Z" transform="translate(-207.87 -72.4)"/><path class="cls-34" d="M384.57,209.86,381.34,208c-.26-.15-.23-.41.07-.59l3.21-1.85a1.13,1.13,0,0,1,1,0l3.24,1.87c.26.15.23.41-.07.59l-3.21,1.85A1.13,1.13,0,0,1,384.57,209.86Z" transform="translate(-207.87 -72.4)"/><path class="cls-34" d="M389.57,212.74l-3.24-1.87c-.26-.15-.23-.41.07-.59l3.21-1.85a1.13,1.13,0,0,1,1,0l3.24,1.87c.26.15.23.41-.07.59l-3.21,1.85A1.13,1.13,0,0,1,389.57,212.74Z" transform="translate(-207.87 -72.4)"/><path class="cls-34" d="M398.46,217.87l-7.06-4.08c-.26-.15-.23-.41.07-.59l3.21-1.85a1.13,1.13,0,0,1,1,0l7.06,4.08c.26.15.23.41-.07.59l-3.21,1.85A1.13,1.13,0,0,1,398.46,217.87Z" transform="translate(-207.87 -72.4)"/><path class="cls-34" d="M408.19,212.25l-6-3.44c-.26-.15-.23-.41.07-.59l3.21-1.85a1.13,1.13,0,0,1,1,0l6,3.44c.26.15.23.41-.07.59l-3.21,1.85A1.13,1.13,0,0,1,408.19,212.25Z" transform="translate(-207.87 -72.4)"/><path class="cls-34" d="M358.34,189.09l-3.24-1.87c-.26-.15-.23-.41.07-.59l3.21-1.85a1.13,1.13,0,0,1,1,0l3.24,1.87c.26.15.23.41-.07.59L359.35,189A1.13,1.13,0,0,1,358.34,189.09Z" transform="translate(-207.87 -72.4)"/><path class="cls-34" d="M353.22,186.13,350,184.27c-.26-.15-.23-.41.07-.59l3.21-1.85a1.13,1.13,0,0,1,1,0l3.24,1.87c.26.15.23.41-.07.59l-3.21,1.85A1.13,1.13,0,0,1,353.22,186.13Z" transform="translate(-207.87 -72.4)"/><path class="cls-34" d="M348.09,183.18l-3.24-1.87c-.26-.15-.23-.41.07-.59l3.21-1.85a1.13,1.13,0,0,1,1,0l3.24,1.87c.26.15.23.41-.07.59l-3.21,1.85A1.13,1.13,0,0,1,348.09,183.18Z" transform="translate(-207.87 -72.4)"/><path class="cls-34" d="M343,180.22l-3.24-1.87c-.26-.15-.23-.41.07-.59l3.21-1.85a1.13,1.13,0,0,1,1,0l3.24,1.87c.26.15.23.41-.07.59L344,180.18A1.13,1.13,0,0,1,343,180.22Z" transform="translate(-207.87 -72.4)"/><path class="cls-34" d="M363.34,192l-3.24-1.87c-.26-.15-.23-.41.07-.59l3.21-1.85a1.13,1.13,0,0,1,1,0l3.24,1.87c.26.15.23.41-.07.59l-3.21,1.85A1.13,1.13,0,0,1,363.34,192Z" transform="translate(-207.87 -72.4)"/><path class="cls-34" d="M368.33,194.86,365.1,193c-.26-.15-.23-.41.07-.59l3.21-1.85a1.13,1.13,0,0,1,1,0l3.24,1.87c.26.15.23.41-.07.59l-3.21,1.85A1.13,1.13,0,0,1,368.33,194.86Z" transform="translate(-207.87 -72.4)"/><path class="cls-34" d="M373.33,197.75l-3.24-1.87c-.26-.15-.23-.41.07-.59l3.21-1.85a1.13,1.13,0,0,1,1,0l3.24,1.87c.26.15.23.41-.07.59l-3.21,1.85A1.13,1.13,0,0,1,373.33,197.75Z" transform="translate(-207.87 -72.4)"/><path class="cls-34" d="M378.33,200.63l-3.24-1.87c-.26-.15-.23-.41.07-.59l3.21-1.85a1.13,1.13,0,0,1,1,0l3.24,1.87c.26.15.23.41-.07.59l-3.21,1.85A1.13,1.13,0,0,1,378.33,200.63Z" transform="translate(-207.87 -72.4)"/><path class="cls-34" d="M383.33,203.52l-3.24-1.87c-.26-.15-.23-.41.07-.59l3.21-1.85a1.13,1.13,0,0,1,1,0l3.24,1.87c.26.15.23.41-.07.59l-3.21,1.85A1.13,1.13,0,0,1,383.33,203.52Z" transform="translate(-207.87 -72.4)"/><path class="cls-34" d="M388.33,206.41l-3.24-1.87c-.26-.15-.23-.41.07-.59l3.21-1.85a1.13,1.13,0,0,1,1,0l3.24,1.87c.26.15.23.41-.07.59l-3.21,1.85A1.13,1.13,0,0,1,388.33,206.41Z" transform="translate(-207.87 -72.4)"/><path class="cls-34" d="M393.32,209.29l-3.24-1.87c-.26-.15-.23-.41.07-.59l3.21-1.85a1.13,1.13,0,0,1,1,0l3.24,1.87c.26.15.23.41-.07.59l-3.21,1.85A1.13,1.13,0,0,1,393.32,209.29Z" transform="translate(-207.87 -72.4)"/><path class="cls-34" d="M398.32,212.18l-3.24-1.87c-.26-.15-.23-.41.07-.59l3.21-1.85a1.13,1.13,0,0,1,1,0l3.24,1.87c.26.15.23.41-.07.59l-3.21,1.85A1.13,1.13,0,0,1,398.32,212.18Z" transform="translate(-207.87 -72.4)"/><path class="cls-34" d="M403.32,215.06l-3.24-1.87c-.26-.15-.23-.41.07-.59l3.21-1.85a1.13,1.13,0,0,1,1,0l3.24,1.87c.26.15.23.41-.07.59L404.33,215A1.13,1.13,0,0,1,403.32,215.06Z" transform="translate(-207.87 -72.4)"/><path class="cls-34" d="M355.71,182l-3.24-1.87c-.26-.15-.23-.41.07-.59l3.21-1.85a1.13,1.13,0,0,1,1,0l3.24,1.87c.26.15.23.41-.07.59l-3.21,1.85A1.13,1.13,0,0,1,355.71,182Z" transform="translate(-207.87 -72.4)"/><path class="cls-34" d="M350.73,179.08l-3.24-1.87c-.26-.15-.23-.41.07-.59l3.21-1.85a1.13,1.13,0,0,1,1,0L355,176.6c.26.15.23.41-.07.59L351.75,179A1.13,1.13,0,0,1,350.73,179.08Z" transform="translate(-207.87 -72.4)"/><path class="cls-34" d="M345.76,176.21l-3.24-1.87c-.26-.15-.23-.41.07-.59l3.21-1.85a1.13,1.13,0,0,1,1,0l3.24,1.87c.26.15.23.41-.07.59l-3.21,1.85A1.13,1.13,0,0,1,345.76,176.21Z" transform="translate(-207.87 -72.4)"/><path class="cls-34" d="M340.79,173.34l-3.24-1.87c-.26-.15-.23-.41.07-.59l3.21-1.85a1.13,1.13,0,0,1,1,0l3.24,1.87c.26.15.23.41-.07.59l-3.21,1.85A1.13,1.13,0,0,1,340.79,173.34Z" transform="translate(-207.87 -72.4)"/><path class="cls-34" d="M345.9,170.39l-3.24-1.87c-.26-.15-.23-.41.07-.59l1.06-.61a1.13,1.13,0,0,1,1,0l3.24,1.87c.26.15.23.41-.07.59l-1.06.61A1.13,1.13,0,0,1,345.9,170.39Z" transform="translate(-207.87 -72.4)"/><path class="cls-34" d="M352.39,174.14l-3.24-1.87c-.26-.15-.23-.41.07-.59l1.06-.61a1.13,1.13,0,0,1,1,0l3.24,1.87c.26.15.23.41-.07.59l-1.06.61A1.13,1.13,0,0,1,352.39,174.14Z" transform="translate(-207.87 -72.4)"/><path class="cls-34" d="M357.34,177l-3.24-1.87c-.26-.15-.23-.41.07-.59l1.06-.61a1.13,1.13,0,0,1,1,0l3.24,1.87c.26.15.23.41-.07.59l-1.06.61A1.13,1.13,0,0,1,357.34,177Z" transform="translate(-207.87 -72.4)"/><path class="cls-34" d="M362.3,179.85,359.06,178c-.26-.15-.23-.41.07-.59l1.06-.61a1.13,1.13,0,0,1,1,0l3.24,1.87c.26.15.23.41-.07.59l-1.06.61A1.13,1.13,0,0,1,362.3,179.85Z" transform="translate(-207.87 -72.4)"/><path class="cls-34" d="M367.25,182.71,364,180.84c-.26-.15-.23-.41.07-.59l1.06-.61a1.13,1.13,0,0,1,1,0l3.24,1.87c.26.15.23.41-.07.59l-1.06.61A1.13,1.13,0,0,1,367.25,182.71Z" transform="translate(-207.87 -72.4)"/><path class="cls-34" d="M394.9,198.68l-3.24-1.87c-.26-.15-.23-.41.07-.59l1.06-.61a1.13,1.13,0,0,1,1,0l3.24,1.87c.26.15.23.41-.07.59l-1.06.61A1.13,1.13,0,0,1,394.9,198.68Z" transform="translate(-207.87 -72.4)"/><path class="cls-34" d="M399.85,201.54l-3.24-1.87c-.26-.15-.23-.41.07-.59l1.06-.61a1.13,1.13,0,0,1,1,0L402,200.3c.26.15.23.41-.07.59l-1.06.61A1.13,1.13,0,0,1,399.85,201.54Z" transform="translate(-207.87 -72.4)"/><path class="cls-34" d="M404.8,204.39l-3.24-1.87c-.26-.15-.23-.41.07-.59l1.06-.61a1.13,1.13,0,0,1,1,0l3.24,1.87c.26.15.23.41-.07.59l-1.06.61A1.13,1.13,0,0,1,404.8,204.39Z" transform="translate(-207.87 -72.4)"/><path class="cls-34" d="M409.75,207.25l-3.24-1.87c-.26-.15-.23-.41.07-.59l1.06-.61a1.13,1.13,0,0,1,1,0L411.9,206c.26.15.23.41-.07.59l-1.06.61A1.13,1.13,0,0,1,409.75,207.25Z" transform="translate(-207.87 -72.4)"/><path class="cls-34" d="M360.7,184.84,357.47,183c-.26-.15-.23-.41.07-.59l3.21-1.85a1.13,1.13,0,0,1,1,0l3.24,1.87c.26.15.23.41-.07.59l-3.21,1.85A1.13,1.13,0,0,1,360.7,184.84Z" transform="translate(-207.87 -72.4)"/><path class="cls-34" d="M365.7,187.73l-3.24-1.87c-.26-.15-.23-.41.07-.59l3.21-1.85a1.13,1.13,0,0,1,1,0l3.24,1.87c.26.15.23.41-.07.59l-3.21,1.85A1.13,1.13,0,0,1,365.7,187.73Z" transform="translate(-207.87 -72.4)"/><path class="cls-34" d="M370.7,190.61l-3.24-1.87c-.26-.15-.23-.41.07-.59l3.21-1.85a1.13,1.13,0,0,1,1,0l3.24,1.87c.26.15.23.41-.07.59l-3.21,1.85A1.13,1.13,0,0,1,370.7,190.61Z" transform="translate(-207.87 -72.4)"/><path class="cls-34" d="M375.7,193.5l-3.24-1.87c-.26-.15-.23-.41.07-.59l3.21-1.85a1.13,1.13,0,0,1,1,0L380,191c.26.15.23.41-.07.59l-3.21,1.85A1.13,1.13,0,0,1,375.7,193.5Z" transform="translate(-207.87 -72.4)"/><path class="cls-34" d="M380.7,196.38l-3.24-1.87c-.26-.15-.23-.41.07-.59l3.21-1.85a1.13,1.13,0,0,1,1,0L385,193.9c.26.15.23.41-.07.59l-3.21,1.85A1.13,1.13,0,0,1,380.7,196.38Z" transform="translate(-207.87 -72.4)"/><path class="cls-34" d="M385.69,199.27l-3.24-1.87c-.26-.15-.23-.41.07-.59l3.21-1.85a1.13,1.13,0,0,1,1,0l3.24,1.87c.26.15.23.41-.07.59l-3.21,1.85A1.13,1.13,0,0,1,385.69,199.27Z" transform="translate(-207.87 -72.4)"/><path class="cls-34" d="M390.69,202.15l-3.24-1.87c-.26-.15-.23-.41.07-.59l3.21-1.85a1.13,1.13,0,0,1,1,0l3.24,1.87c.26.15.23.41-.07.59l-3.21,1.85A1.13,1.13,0,0,1,390.69,202.15Z" transform="translate(-207.87 -72.4)"/><path class="cls-34" d="M395.69,205l-3.24-1.87c-.26-.15-.23-.41.07-.59l3.21-1.85a1.13,1.13,0,0,1,1,0l3.24,1.87c.26.15.23.41-.07.59L396.7,205A1.13,1.13,0,0,1,395.69,205Z" transform="translate(-207.87 -72.4)"/><path class="cls-34" d="M400.69,207.92l-3.24-1.87c-.26-.15-.23-.41.07-.59l3.21-1.85a1.13,1.13,0,0,1,1,0l3.24,1.87c.26.15.23.41-.07.59l-3.21,1.85A1.13,1.13,0,0,1,400.69,207.92Z" transform="translate(-207.87 -72.4)"/><path class="cls-34" d="M332.13,185.2l-9.53-5.5c-.26-.15-.23-.41.07-.59l3.21-1.85a1.13,1.13,0,0,1,1,0l9.53,5.5c.26.15.23.41-.07.59l-3.21,1.85A1.13,1.13,0,0,1,332.13,185.2Z" transform="translate(-207.87 -72.4)"/><path class="cls-34" d="M393.53,220.65l-9.53-5.5c-.26-.15-.23-.41.07-.59l3.21-1.85a1.13,1.13,0,0,1,1,0l9.53,5.5c.26.15.23.41-.07.59l-3.21,1.85A1.13,1.13,0,0,1,393.53,220.65Z" transform="translate(-207.87 -72.4)"/><path class="cls-34" d="M373.54,215.48l-3.24-1.87c-.26-.15-.23-.41.07-.59l3.82-2.21a1.13,1.13,0,0,1,1,0l3.24,1.87c.26.15.23.41-.07.59l-3.82,2.21A1.13,1.13,0,0,1,373.54,215.48Z" transform="translate(-207.87 -72.4)"/><path class="cls-34" d="M337.25,194.53l-5.18-3c-.26-.15-.23-.41.07-.59l3.82-2.21a1.13,1.13,0,0,1,1,0l5.18,3c.26.15.23.41-.07.59l-3.82,2.21A1.13,1.13,0,0,1,337.25,194.53Z" transform="translate(-207.87 -72.4)"/><path class="cls-34" d="M368.73,212.7l-5.18-3c-.26-.15-.23-.41.07-.59l3.82-2.21a1.13,1.13,0,0,1,1,0l5.18,3c.26.15.23.41-.07.59l-3.82,2.21A1.13,1.13,0,0,1,368.73,212.7Z" transform="translate(-207.87 -72.4)"/><path class="cls-34" d="M344.46,198.69l-5.18-3c-.26-.15-.23-.41.07-.59l3.82-2.21a1.13,1.13,0,0,1,1,0l5.18,3c.26.15.23.41-.07.59l-3.82,2.21A1.13,1.13,0,0,1,344.46,198.69Z" transform="translate(-207.87 -72.4)"/><path class="cls-34" d="M344.23,192.89l22.5,13a.31.31,0,0,1,0,.58l-3.9,2.25a1.12,1.12,0,0,1-1,0l-22.5-13Z" transform="translate(-207.87 -72.4)"/><path class="cls-34" d="M387.51,220.71l3.61,2.08c.21.12.19.34-.06.48l-1.56.9a.92.92,0,0,1-.83,0l-3.61-2.08c-.21-.12-.19-.34.06-.48l1.56-.9A.92.92,0,0,1,387.51,220.71Z" transform="translate(-207.87 -72.4)"/><path class="cls-34" d="M382.47,217.8l3.61,2.08c.21.12.19.34-.06.48l-1.56.9a.92.92,0,0,1-.83,0L380,219.22c-.21-.12-.19-.34.06-.48l1.56-.9A.92.92,0,0,1,382.47,217.8Z" transform="translate(-207.87 -72.4)"/><path class="cls-34" d="M377.48,214.92l3.61,2.08c.21.12.19.34-.06.48l-1.56.9a.92.92,0,0,1-.83,0l-3.6-2.08c-.21-.12-.19-.34.06-.48l1.56-.9A.92.92,0,0,1,377.48,214.92Z" transform="translate(-207.87 -72.4)"/><path class="cls-34" d="M385.23,216.21l3.61,2.08c.21.12.19.34-.06.48l-1.56.9a.92.92,0,0,1-.83,0l-3.61-2.08c-.21-.12-.19-.34.06-.48l1.56-.9A.92.92,0,0,1,385.23,216.21Z" transform="translate(-207.87 -72.4)"/></g><path class="cls-27" d="M436.22,138.45a1.52,1.52,0,0,1-.75-.22,2.18,2.18,0,0,1-1.06-2.23,1.12,1.12,0,0,1,.63-.8,1.34,1.34,0,0,1,1.2.13,2.21,2.21,0,0,1,1.06,2.23,1.08,1.08,0,0,1-1.08.9Zm-.73-3a.75.75,0,0,0-.31.06.78.78,0,0,0-.43.56,1.84,1.84,0,0,0,.89,1.85,1,1,0,0,0,.89.11.78.78,0,0,0,.43-.57,1.84,1.84,0,0,0-.89-1.85A1.18,1.18,0,0,0,435.49,135.45Z" transform="translate(-207.87 -72.4)"/><path class="cls-27" d="M440.34,140.83a1.52,1.52,0,0,1-.75-.22,2.21,2.21,0,0,1-1.06-2.23,1.12,1.12,0,0,1,.63-.81,1.34,1.34,0,0,1,1.2.13,2.21,2.21,0,0,1,1.06,2.23,1.08,1.08,0,0,1-1.08.9Zm-.73-3a.76.76,0,0,0-.31.06.78.78,0,0,0-.43.57,1.84,1.84,0,0,0,.89,1.85,1,1,0,0,0,.89.11.78.78,0,0,0,.43-.57h0a1.84,1.84,0,0,0-.89-1.85A1.18,1.18,0,0,0,439.61,137.83Z" transform="translate(-207.87 -72.4)"/><path class="cls-27" d="M445.37,142.27a1,1,0,0,1-1.58.57,2,2,0,0,1-1-2,1,1,0,0,1,1.58-.57A2,2,0,0,1,445.37,142.27Z" transform="translate(-207.87 -72.4)"/><polygon class="cls-27" points="158.49 24.4 156.29 23.13 156.46 22.11 158.66 23.38 158.49 24.4"/><polygon class="cls-27" points="161.69 26.25 159.49 24.98 159.66 23.96 161.87 25.23 161.69 26.25"/><polygon class="cls-27" points="155.32 22.57 150.49 19.78 150.66 18.76 155.49 21.55 155.32 22.57"/><path class="cls-27" d="M479.41,286.11a7.63,7.63,0,0,1-3.73-.89L455.91,273.8a2.39,2.39,0,0,1,0-4.51l19.78-11.42a8.26,8.26,0,0,1,7.46,0l19.78,11.42a2.39,2.39,0,0,1,0,4.51l-19.78,11.42A7.63,7.63,0,0,1,479.41,286.11Zm-3.56-1.19a7.86,7.86,0,0,0,7.11,0l19.78-11.42a2.05,2.05,0,0,0,0-3.9L483,258.17a7.86,7.86,0,0,0-7.11,0l-19.78,11.42a2.05,2.05,0,0,0,0,3.9Z" transform="translate(-207.87 -72.4)"/><path class="cls-45" d="M505.13,267.16v-6.77l-1.24-.69c-.35,2.12-2.84,3.51-4.92,3.8l-14.17,8.29L478.61,274l-19.74-10.19.46-.26c-1.69-.79-2.6-2.59-3.51-4.24l-1.33.79-.79.22v6.89h0a3,3,0,0,0,1.74,2.42l19.78,11.42a9.3,9.3,0,0,0,8.4,0l19.78-11.42a3,3,0,0,0,1.74-2.38s0-.08,0-.12Z" transform="translate(-207.87 -72.4)"/><path class="cls-46" d="M505.13,261.14v-4.48l-1.24-.69c-.35,2.12-2.84,3.51-4.92,3.8l-14.17,8.29-6.19,2.23L458.87,260.1l.46-.26c-1.69-.79-2.6-2.59-3.51-4.24l-1.33.79-.79.22v4.6h0a3,3,0,0,0,1.74,2.42l19.78,11.42a9.3,9.3,0,0,0,8.4,0l19.78-11.42a3,3,0,0,0,1.74-2.38s0-.08,0-.12Z" transform="translate(-207.87 -72.4)"/><path class="cls-47" d="M499,259.77l-14.17,8.29L479.41,270v6.06a8.59,8.59,0,0,0,4.2-1l19.78-11.42a3,3,0,0,0,1.74-2.38s0-.08,0-.12h0v-4.48L504,256h-.12C503.49,258.11,501,259.48,499,259.77Z" transform="translate(-207.87 -72.4)"/><path class="cls-48" d="M459.32,259.84,478.07,249a3,3,0,0,1,2.69,0l18.42,10.63-.2.12c2.08-.29,4.57-1.68,4.92-3.8l-20.67-11.5-6-1.59-4.9,2.88-16.5,9.84C456.73,257.25,457.64,259.05,459.32,259.84Z" transform="translate(-207.87 -72.4)"/><path class="cls-47" d="M479.41,243.47l-2.2-.58-4.9,2.88-16.5,9.84c.91,1.64,1.82,3.45,3.51,4.24L478.07,249a2.75,2.75,0,0,1,1.35-.32Z" transform="translate(-207.87 -72.4)"/><path class="cls-49" d="M475.21,270.51l-19.78-11.42c-2.32-1.34-2.32-3.51,0-4.85l19.78-11.42a9.3,9.3,0,0,1,8.4,0l19.78,11.42c2.32,1.34,2.32,3.51,0,4.85l-19.78,11.42A9.3,9.3,0,0,1,475.21,270.51Zm5.54-26a3,3,0,0,0-2.69,0l-19.78,11.42a.82.82,0,0,0,0,1.55l19.78,11.42a3,3,0,0,0,2.69,0l19.78-11.42a.82.82,0,0,0,0-1.55Z" transform="translate(-207.87 -72.4)"/><path class="cls-31" d="M500.54,255.88l-19.78-11.42a3,3,0,0,0-2.69,0l-19.78,11.42c-.49.29-.66.69-.49,1.06a1.14,1.14,0,0,1,.49-.5L478.07,245a3,3,0,0,1,2.69,0l19.78,11.42a1.14,1.14,0,0,1,.49.5C501.2,256.57,501,256.17,500.54,255.88Z" transform="translate(-207.87 -72.4)"/><path class="cls-31" d="M503.39,259.09l-19.78,11.42a9.3,9.3,0,0,1-8.4,0l-19.78-11.42a3.12,3.12,0,0,1-1.72-2.15,2.8,2.8,0,0,0,1.72,2.7l19.78,11.42a9.3,9.3,0,0,0,8.4,0l19.78-11.42a2.8,2.8,0,0,0,1.72-2.7A3.12,3.12,0,0,1,503.39,259.09Z" transform="translate(-207.87 -72.4)"/><path class="cls-50" d="M475.77,270.18,456,258.76c-2-1.16-2-3,0-4.21l19.78-11.42a8.06,8.06,0,0,1,7.28,0l19.78,11.42c2,1.16,2,3,0,4.2l-19.78,11.42A8.06,8.06,0,0,1,475.77,270.18Zm5.54-26a4.21,4.21,0,0,0-3.81,0l-19.78,11.42a1.16,1.16,0,0,0,0,2.2l19.78,11.42a4.21,4.21,0,0,0,3.81,0l19.78-11.42a1.16,1.16,0,0,0,0-2.2Z" transform="translate(-207.87 -72.4)"/><path class="cls-45" d="M480.76,244.46a3,3,0,0,0-2.69,0l-19.78,11.42a.82.82,0,0,0,0,1.55l19.78,11.42a3,3,0,0,0,2.69,0l19.78-11.42a.82.82,0,0,0,0-1.55Z" transform="translate(-207.87 -72.4)"/><path class="cls-27" d="M278.21,141.63a7.63,7.63,0,0,1-3.73-.89L254.7,129.32a2.39,2.39,0,0,1,0-4.51l19.78-11.42a8.26,8.26,0,0,1,7.46,0l19.78,11.42a2.39,2.39,0,0,1,0,4.51l-19.78,11.42A7.63,7.63,0,0,1,278.21,141.63Zm-3.56-1.19a7.86,7.86,0,0,0,7.11,0L301.54,129a2.05,2.05,0,0,0,0-3.9l-19.78-11.42a7.86,7.86,0,0,0-7.11,0l-19.78,11.42a2.05,2.05,0,0,0,0,3.9Z" transform="translate(-207.87 -72.4)"/><path class="cls-45" d="M303.92,122.68v-6.77l-1.24-.69c-.35,2.12-2.84,3.51-4.92,3.8l-14.17,8.29-6.19,2.23-19.74-10.19.46-.26c-1.69-.79-2.6-2.59-3.51-4.24l-1.33.79-.79.22v6.89h0a3,3,0,0,0,1.74,2.42L274,136.6a9.3,9.3,0,0,0,8.4,0l19.78-11.42a3,3,0,0,0,1.74-2.38s0-.08,0-.12Z" transform="translate(-207.87 -72.4)"/><path class="cls-51" d="M303.92,116.66v-4.48l-1.24-.69c-.35,2.12-2.84,3.51-4.92,3.8l-14.17,8.29-6.19,2.23-19.74-10.19.46-.26c-1.69-.79-2.6-2.59-3.51-4.24l-1.33.79-.79.22v4.6h0a3,3,0,0,0,1.74,2.42L274,130.58a9.3,9.3,0,0,0,8.4,0l19.78-11.42a3,3,0,0,0,1.74-2.38s0-.08,0-.12Z" transform="translate(-207.87 -72.4)"/><path class="cls-47" d="M297.76,115.29l-14.17,8.29-5.38,1.94v6.06a8.59,8.59,0,0,0,4.2-1l19.78-11.42a3,3,0,0,0,1.74-2.38s0-.08,0-.12h0v-4.48l-1.13-.63h-.12C302.29,113.63,299.83,115,297.76,115.29Z" transform="translate(-207.87 -72.4)"/><path class="cls-52" d="M274,126,254.23,114.6c-2.32-1.34-2.32-3.51,0-4.85L274,98.33a9.3,9.3,0,0,1,8.4,0l19.78,11.42c2.32,1.34,2.32,3.51,0,4.85L282.41,126A9.3,9.3,0,0,1,274,126Z" transform="translate(-207.87 -72.4)"/><path class="cls-31" d="M302.19,114.6,282.41,126a9.3,9.3,0,0,1-8.4,0L254.23,114.6a3.12,3.12,0,0,1-1.72-2.15,2.8,2.8,0,0,0,1.72,2.7L274,126.58a9.3,9.3,0,0,0,8.4,0l19.78-11.42a2.8,2.8,0,0,0,1.72-2.7A3.12,3.12,0,0,1,302.19,114.6Z" transform="translate(-207.87 -72.4)"/><path class="cls-27" d="M403.34,314.22a9.34,9.34,0,0,1-4.57-1.09l-79.48-45.89a2.9,2.9,0,0,1,0-5.47l16.76-9.66.17.3-16.76,9.66a2.56,2.56,0,0,0,0,4.87l79.48,45.89a9.72,9.72,0,0,0,8.78,0l58.17-33.46.17.3L407.9,313.13A9.34,9.34,0,0,1,403.34,314.22Z" transform="translate(-207.87 -72.4)"/><path class="cls-27" d="M276.7,263.64a5.52,5.52,0,0,1-2.76-.74l-26.25-15.19.17-.3,26.25,15.19a5.18,5.18,0,0,0,5.18,0l37.54-21.66.17.3L279.46,262.9A5.53,5.53,0,0,1,276.7,263.64Z" transform="translate(-207.87 -72.4)"/><path class="cls-53" d="M222.33,227.65c5.31-3.07,13.93-3.07,19.25,0a10.41,10.41,0,0,1,2.16,1.63c3-3,2.29-6.91-2.16-9.48-5.31-3.07-13.93-3.07-19.25,0-4.45,2.57-5.17,6.48-2.16,9.48A10.41,10.41,0,0,1,222.33,227.65Z" transform="translate(-207.87 -72.4)"/><path class="cls-54" d="M252.47,225.38a18.92,18.92,0,0,0-3.49-2.54,28.79,28.79,0,0,0-7.12-2.84c5,3.14,4.8,8-.45,11-5.42,3.13-14.2,3.13-19.61,0-5.08-2.93-5.39-7.57-.95-10.72a27.93,27.93,0,0,0-5.94,2.51,18.91,18.91,0,0,0-3.49,2.54h-3.57v7.29h0c0,3.56,2.35,7.12,7.06,9.83,9.41,5.43,24.66,5.43,34.07,0,4.7-2.72,7.05-6.27,7.05-9.83v-7.29Z" transform="translate(-207.87 -72.4)"/><path class="cls-47" d="M249,222.84a28.79,28.79,0,0,0-7.12-2.84c5,3.14,4.8,8-.45,11a19.87,19.87,0,0,1-9.46,2.34v13.2c6.16,0,12.33-1.36,17-4.07s7.05-6.27,7.05-9.83v-7.29h-3.57A18.92,18.92,0,0,0,249,222.84Z" transform="translate(-207.87 -72.4)"/><path class="cls-55" d="M249,222.84a28.79,28.79,0,0,0-7.12-2.84c5,3.14,4.8,8-.45,11a19.87,19.87,0,0,1-9.46,2.34v13.2c6.16,0,12.33-1.36,17-4.07s7.05-6.27,7.05-9.83v-7.29h-3.57A18.92,18.92,0,0,0,249,222.84Z" transform="translate(-207.87 -72.4)"/><path class="cls-56" d="M249,216.15c-9.41-5.43-24.66-5.43-34.07,0s-9.41,14.24,0,19.67,24.66,5.43,34.07,0S258.4,221.58,249,216.15Zm-7.4,15.5c-5.42,3.13-14.2,3.13-19.61,0s-5.42-8.2,0-11.32,14.2-3.13,19.61,0S247,228.52,241.59,231.65Z" transform="translate(-207.87 -72.4)"/><path class="cls-31" d="M249,235.07c-9.41,5.43-24.66,5.43-34.07,0-4.54-2.62-6.89-6-7-9.46-.17,3.68,2.18,7.4,7,10.21,9.41,5.43,24.66,5.43,34.07,0,4.87-2.81,7.22-6.53,7-10.21C255.87,229,253.53,232.45,249,235.07Z" transform="translate(-207.87 -72.4)"/><path class="cls-31" d="M241.59,219.57c-5.42-3.13-14.2-3.13-19.61,0-2.87,1.66-4.22,3.86-4,6,.16-1.92,1.5-3.82,4-5.29,5.42-3.13,14.2-3.13,19.61,0,2.54,1.47,3.89,3.36,4,5.29C245.81,223.44,244.46,221.23,241.59,219.57Z" transform="translate(-207.87 -72.4)"/><path class="cls-57" d="M247.9,216.14c-8.76-5.06-23-5.06-31.71,0s-8.76,13.25,0,18.31,23,5.06,31.71,0S256.65,221.2,247.9,216.14Zm-6.38,14.62c-5.23,3-13.71,3-18.94,0s-5.23-7.92,0-10.94,13.71-3,18.94,0S246.74,227.75,241.51,230.77Z" transform="translate(-207.87 -72.4)"/><path class="cls-45" d="M241.51,230.77c-5.23,3-13.71,3-18.94,0s-5.23-7.92,0-10.94,13.71-3,18.94,0S246.74,227.75,241.51,230.77Z" transform="translate(-207.87 -72.4)"/><polygon class="cls-27" points="155.54 32.59 150.27 29.55 150.48 28.33 155.75 31.37 155.54 32.59"/><polygon class="cls-27" points="160.04 35.18 157.4 33.66 157.61 32.45 160.24 33.97 160.04 35.18"/><polygon class="cls-27" points="156.62 36.34 154.37 35.05 154.58 33.83 156.82 35.12 156.62 36.34"/><polygon class="cls-27" points="160.38 38.51 157.74 36.99 157.95 35.77 160.58 37.29 160.38 38.51"/><polygon class="cls-27" points="164.25 43.88 153.89 37.9 154.1 36.68 164.45 42.66 164.25 43.88"/><polygon class="cls-27" points="155.27 67.78 144.92 61.8 145.13 60.59 155.48 66.56 155.27 67.78"/><polygon class="cls-27" points="159.25 70.08 156.62 68.56 156.82 67.34 159.46 68.86 159.25 70.08"/><polygon class="cls-27" points="155.66 42.05 153.41 40.76 153.62 39.54 155.86 40.83 155.66 42.05"/><polygon class="cls-27" points="159.42 44.22 156.78 42.7 156.99 41.48 159.62 43 159.42 44.22"/><polygon class="cls-27" points="158.63 46.9 152.94 43.61 153.14 42.39 158.83 45.68 158.63 46.9"/><polygon class="cls-27" points="162.44 49.09 159.8 47.58 160.01 46.36 162.64 47.88 162.44 49.09"/><polygon class="cls-27" points="166.26 51.31 163.63 49.78 163.84 48.57 166.47 50.09 166.26 51.31"/><polygon class="cls-27" points="172.44 54.87 167.46 52 167.66 50.78 172.65 53.66 172.44 54.87"/><polygon class="cls-27" points="168.5 58.86 165.87 57.34 166.07 56.12 168.7 57.64 168.5 58.86"/><polygon class="cls-27" points="174.68 62.43 169.69 59.55 169.9 58.33 174.88 61.21 174.68 62.43"/><polygon class="cls-27" points="154.61 50.84 151.98 49.32 152.18 48.1 154.82 49.62 154.61 50.84"/><polygon class="cls-27" points="158.44 53.05 155.81 51.53 156.01 50.31 158.65 51.84 158.44 53.05"/><polygon class="cls-27" points="164.62 56.62 159.64 53.74 159.84 52.52 164.82 55.4 164.62 56.62"/><polygon class="cls-27" points="172.72 58.16 170.08 56.64 170.29 55.42 172.92 56.95 172.72 58.16"/><polygon class="cls-27" points="176.55 60.37 173.91 58.85 174.12 57.63 176.75 59.16 176.55 60.37"/><polygon class="cls-27" points="182.72 63.94 177.74 61.06 177.94 59.85 182.93 62.72 182.72 63.94"/><polygon class="cls-27" points="163.37 72.46 160.74 70.94 160.94 69.72 163.58 71.24 163.37 72.46"/><polygon class="cls-27" points="169.55 76.02 164.57 73.15 164.77 71.93 169.76 74.81 169.55 76.02"/><polygon class="cls-27" points="153.66 56.55 151.02 55.03 151.23 53.81 153.86 55.34 153.66 56.55"/><polygon class="cls-27" points="159.83 60.12 154.85 57.24 155.06 56.02 160.04 58.9 159.83 60.12"/><polygon class="cls-27" points="166.24 77.24 163.61 75.72 163.81 74.51 166.45 76.03 166.24 77.24"/><polygon class="cls-27" points="172.42 80.81 167.44 77.93 167.64 76.72 172.63 79.59 172.42 80.81"/><polygon class="cls-27" points="172.12 48.42 169.49 46.9 169.69 45.68 172.32 47.2 172.12 48.42"/><polygon class="cls-27" points="168.14 46.12 165.5 44.6 165.71 43.38 168.34 44.91 168.14 46.12"/><polygon class="cls-27" points="178.3 51.99 173.31 49.11 173.52 47.9 178.5 50.77 178.3 51.99"/><polygon class="cls-27" points="154.83 47.84 152.46 46.47 152.66 45.25 155.04 46.62 154.83 47.84"/><polygon class="cls-27" points="161.88 51.91 156.1 48.57 156.31 47.35 162.09 50.69 161.88 51.91"/><polygon class="cls-27" points="168.93 55.98 163.15 52.64 163.36 51.42 169.13 54.76 168.93 55.98"/><polygon class="cls-27" points="181.96 54.1 179.58 52.73 179.79 51.51 182.16 52.89 181.96 54.1"/><polygon class="cls-27" points="189 58.17 183.23 54.84 183.43 53.62 189.21 56.95 189 58.17"/><polygon class="cls-27" points="196.05 62.24 190.28 58.91 190.48 57.69 196.26 61.02 196.05 62.24"/><polygon class="cls-27" points="157.33 55.54 151.55 52.21 151.76 50.99 157.53 54.32 157.33 55.54"/><polygon class="cls-27" points="160.37 57.3 158.6 56.27 158.8 55.06 160.58 56.08 160.37 57.3"/><polygon class="cls-27" points="163.42 59.06 161.65 58.04 161.85 56.82 163.63 57.84 163.42 59.06"/><polygon class="cls-27" points="169.07 62.32 164.7 59.8 164.91 58.58 169.27 61.1 169.07 62.32"/><polygon class="cls-27" points="175.39 56.57 173.62 55.55 173.82 54.33 175.59 55.36 175.39 56.57"/><polygon class="cls-27" points="181.03 59.83 176.67 57.31 176.87 56.09 181.24 58.61 181.03 59.83"/><polygon class="cls-27" points="182.22 60.52 177.85 58 178.06 56.78 182.42 59.3 182.22 60.52"/><polygon class="cls-27" points="158.98 76.18 153.29 72.9 153.5 71.68 159.19 74.97 158.98 76.18"/><polygon class="cls-27" points="162.79 78.38 160.16 76.86 160.36 75.64 163 77.17 162.79 78.38"/><polygon class="cls-27" points="166.62 80.59 163.99 79.07 164.19 77.86 166.82 79.38 166.62 80.59"/><polygon class="cls-27" points="172.8 84.16 167.81 81.28 168.02 80.06 173 82.94 172.8 84.16"/><polygon class="cls-27" points="176.75 86.44 174.12 84.92 174.32 83.7 176.96 85.22 176.75 86.44"/><polygon class="cls-27" points="182.93 90.01 177.95 87.13 178.15 85.92 183.13 88.79 182.93 90.01"/><polygon class="cls-27" points="163.97 85.33 161.34 83.81 161.55 82.59 164.18 84.11 163.97 85.33"/><polygon class="cls-27" points="170.15 88.9 165.17 86.02 165.37 84.8 170.36 87.68 170.15 88.9"/><polygon class="cls-27" points="150.22 77.39 147.58 75.87 147.79 74.65 150.42 76.17 150.22 77.39"/><polygon class="cls-27" points="154.05 79.6 151.41 78.08 151.62 76.86 154.25 78.38 154.05 79.6"/><polygon class="cls-27" points="160.23 83.17 155.24 80.29 155.45 79.07 160.43 81.95 160.23 83.17"/><polygon class="cls-27" points="155.19 77.13 152.81 75.75 153.02 74.54 155.39 75.91 155.19 77.13"/><polygon class="cls-27" points="162.24 81.19 156.46 77.86 156.66 76.64 162.44 79.98 162.24 81.19"/><polygon class="cls-27" points="169.28 85.26 163.51 81.93 163.71 80.71 169.49 84.05 169.28 85.26"/><polygon class="cls-27" points="148.27 79.4 142.5 76.06 142.7 74.84 148.48 78.18 148.27 79.4"/><polygon class="cls-27" points="151.32 81.15 149.54 80.13 149.75 78.91 151.52 79.94 151.32 81.15"/><polygon class="cls-27" points="154.37 82.92 152.6 81.89 152.8 80.67 154.57 81.7 154.37 82.92"/><polygon class="cls-27" points="160.01 86.17 155.65 83.65 155.85 82.44 160.22 84.95 160.01 86.17"/><polygon class="cls-27" points="161.2 86.86 156.83 84.34 157.04 83.12 161.4 85.64 161.2 86.86"/><polygon class="cls-27" points="150.88 68.37 149.1 67.35 149.31 66.13 151.08 67.15 150.88 68.37"/><polygon class="cls-27" points="156.52 71.63 152.15 69.11 152.36 67.89 156.72 70.41 156.52 71.63"/><polygon class="cls-27" points="162.28 74.96 157.92 72.44 158.12 71.22 162.49 73.74 162.28 74.96"/><polygon class="cls-27" points="184.49 94.04 181.86 92.52 182.06 91.31 184.7 92.83 184.49 94.04"/><polygon class="cls-27" points="190.67 97.61 185.69 94.73 185.89 93.52 190.88 96.39 190.67 97.61"/><polygon class="cls-27" points="174.77 88.43 170.4 85.91 170.61 84.69 174.97 87.21 174.77 88.43"/><polygon class="cls-27" points="180.53 91.76 176.17 89.24 176.37 88.02 180.74 90.54 180.53 91.76"/><polygon class="cls-27" points="147.79 56.3 146.02 55.27 146.22 54.06 147.99 55.08 147.79 56.3"/><polygon class="cls-27" points="153.43 59.55 149.07 57.03 149.27 55.82 153.64 58.34 153.43 59.55"/><polygon class="cls-27" points="159.19 62.88 154.83 60.36 155.03 59.15 159.4 61.66 159.19 62.88"/><path class="cls-27" d="M434.44,167a1.71,1.71,0,0,1-.85-.25l-24.14-13.94a3.35,3.35,0,0,1-1.44-3.25l1.54-9.21a1.75,1.75,0,0,1,.91-1.35,1.52,1.52,0,0,1,1.43.12L436,153a3.35,3.35,0,0,1,1.44,3.25l-1.54,9.21a1.75,1.75,0,0,1-.91,1.35A1.34,1.34,0,0,1,434.44,167ZM411,139.26a.93.93,0,0,0-.4.09,1.35,1.35,0,0,0-.67,1l-1.54,9.21a2.91,2.91,0,0,0,1.24,2.82l24.14,13.94a1.12,1.12,0,0,0,1,.1,1.35,1.35,0,0,0,.67-1l1.54-9.21a2.91,2.91,0,0,0-1.24-2.82l-24.14-13.94A1.3,1.3,0,0,0,411,139.26Z" transform="translate(-207.87 -72.4)"/><path class="cls-27" d="M431.79,182.8a1.71,1.71,0,0,1-.85-.25l-24.14-13.94a3.35,3.35,0,0,1-1.44-3.25l1.54-9.21a1.75,1.75,0,0,1,.91-1.35,1.52,1.52,0,0,1,1.43.12l24.14,13.94a3.35,3.35,0,0,1,1.44,3.25l-1.54,9.21a1.75,1.75,0,0,1-.91,1.35A1.34,1.34,0,0,1,431.79,182.8Zm-23.41-27.71a.93.93,0,0,0-.4.09,1.35,1.35,0,0,0-.67,1l-1.54,9.21a2.91,2.91,0,0,0,1.24,2.82l24.14,13.94a1.11,1.11,0,0,0,1,.1,1.35,1.35,0,0,0,.67-1l1.54-9.21a2.91,2.91,0,0,0-1.24-2.82L409,155.28A1.3,1.3,0,0,0,408.38,155.09Z" transform="translate(-207.87 -72.4)"/><path class="cls-58" d="M411.63,151.76c.43.25.81.15.95-.23l2.82-7.69c.32-.88,1.64-.08,1.91,1.16l1.73,7.74a2.25,2.25,0,0,0,1,1.39l.41.24c.4.23.77.17.92-.17l.57-1.22c.36-.75,1.54,0,1.86,1.12h0a2.24,2.24,0,0,0,.94,1.29l.36.21c.44.25.83.15,1-.26l.52-1.61c.3-.91,1.61-.15,1.92,1.1l1.73,7.17a2.24,2.24,0,0,0,1,1.36Z" transform="translate(-207.87 -72.4)"/><path class="cls-27" d="M428.11,179.16a2.44,2.44,0,0,1-1.07-1.49l-1.73-7.17a1.7,1.7,0,0,0-1.2-1.34c-.1,0-.24,0-.32.26l-.52,1.61a.75.75,0,0,1-.44.49,1,1,0,0,1-.82-.12l-.36-.21a2.45,2.45,0,0,1-1-1.41,1.7,1.7,0,0,0-1.16-1.28.29.29,0,0,0-.32.19l-.57,1.21a.72.72,0,0,1-.44.39,1,1,0,0,1-.78-.13l-.41-.24a2.46,2.46,0,0,1-1.06-1.52l-1.73-7.74a1.73,1.73,0,0,0-1.19-1.37c-.16,0-.26.06-.32.24l-2.82,7.69a.73.73,0,0,1-.44.46,1,1,0,0,1-.81-.12l.21-.36a.57.57,0,0,0,.46.09.33.33,0,0,0,.19-.21l2.82-7.69a.74.74,0,0,1,.74-.51,2.11,2.11,0,0,1,1.57,1.69l1.73,7.74a2,2,0,0,0,.87,1.25l.41.24a.58.58,0,0,0,.45.09.3.3,0,0,0,.19-.17l.57-1.21a.71.71,0,0,1,.73-.43,2.09,2.09,0,0,1,1.52,1.58,2,2,0,0,0,.84,1.16l.36.21a.56.56,0,0,0,.47.09.34.34,0,0,0,.19-.23l.52-1.61a.73.73,0,0,1,.73-.54,2.08,2.08,0,0,1,1.59,1.65l1.73,7.17a2,2,0,0,0,.87,1.23Z" transform="translate(-207.87 -72.4)"/><g id="_4" data-name="4"><g id="_Group_37" data-name="&lt;Group&gt;"><g id="_Group_38" data-name="&lt;Group&gt;"><path id="_Path_16" data-name="&lt;Path&gt;" class="cls-59" d="M247.87,219.56c-2.39-4.12-8.75-7.07-16.24-7.07s-13.85,3-16.24,7.07h-1v3.6c0,5.89,7.73,10.67,17.27,10.67S248.9,229,248.9,223.16v-3.6Z" transform="translate(-207.87 -72.4)"/><g class="cls-60"><path id="_Path_17" data-name="&lt;Path&gt;" class="cls-61" d="M217.36,223.16v6c3.93,3.44,9.17,4.67,15.1,4.67v-3.6Z" transform="translate(-207.87 -72.4)"/></g><ellipse id="_Path_18" data-name="&lt;Path&gt;" class="cls-62" cx="23.76" cy="147.16" rx="17.27" ry="10.67"/><g class="cls-63"><path id="_Path_19" data-name="&lt;Path&gt;" class="cls-64" d="M220.1,227.48,245,212.81c-3.16-2.39-8-3.92-13.33-3.92l-17.31,10.67C214.37,222.71,216.59,225.53,220.1,227.48Z" transform="translate(-207.87 -72.4)"/></g><g class="cls-65"><path id="_Path_20" data-name="&lt;Path&gt;" class="cls-66" d="M231.63,230.23l.78,0,16.4-9.65a6.7,6.7,0,0,0,.08-1,6.94,6.94,0,0,0-.64-2.85l-22.15,13A27,27,0,0,0,231.63,230.23Z" transform="translate(-207.87 -72.4)"/></g><ellipse id="_Path_21" data-name="&lt;Path&gt;" class="cls-67" cx="23.76" cy="146.68" rx="13.79" ry="8.03"/><g class="cls-68"><path id="_Path_22" data-name="&lt;Path&gt;" class="cls-69" d="M229,227l16.14-9.51c-.68-1.91-2.52-3.56-5.07-4.71a26.93,26.93,0,0,0-5.83-.64l-15.61,9.62C220.24,224.42,224.17,226.44,229,227Z" transform="translate(-207.87 -72.4)"/></g><path id="_Path_23" data-name="&lt;Path&gt;" class="cls-70" d="M231.63,211.05c-7.62,0-13.79,3.59-13.79,8a4.79,4.79,0,0,0,.16,1.17c1-3.88,6.69-6.86,13.63-6.86s12.65,3,13.63,6.86a4.79,4.79,0,0,0,.16-1.17C245.42,214.65,239.25,211.05,231.63,211.05Z" transform="translate(-207.87 -72.4)"/><g class="cls-71"><path id="_Path_24" data-name="&lt;Path&gt;" class="cls-72" d="M231.65,211.05a23.07,23.07,0,0,0-4,.35v2.34a23,23,0,0,1,4-.36,18.44,18.44,0,0,1,10.93,3.15h0V214.2A18.48,18.48,0,0,0,231.65,211.05Z" transform="translate(-207.87 -72.4)"/></g></g><g id="_Group_39" data-name="&lt;Group&gt;"><path id="_Compound_Path_4" data-name="&lt;Compound Path&gt;" class="cls-70" d="M241.06,222.94l-.61-.35a1.52,1.52,0,0,0,.66-1.08s0-.07,0-.11h0v-1.33l-.75-.1a5.11,5.11,0,0,0-1.14-.91,7,7,0,0,0-2.43-.86,6.27,6.27,0,0,0-2.54.1,1.3,1.3,0,0,0-.14-1.23,3.53,3.53,0,0,0-1.3-1.18,6.4,6.4,0,0,0-1.81-.71,7.39,7.39,0,0,0-1.83-.2,5,5,0,0,0-1.4.22l-1.59-.92-.19-.78h-1.63v1.43l1.77,1-.37.2-1,.6-1.07-.63v-.18l-2.17-.81v1.43l.77.45-.37-.07v1.43l12.92,7.53,1.37-.78,1.76,1,1.48-.85v-1.43l-1.24.71-.52-.3.47-.27.93-.54,1.77,1,1.48-.85v-1.43ZM229,220.25l-3-1.74,1.13-.65q1.39-.79,1.72-.94a2.35,2.35,0,0,1,1.19-.16,3.19,3.19,0,0,1,1.22.43,1.37,1.37,0,0,1,.72.75.7.7,0,0,1-.33.72q-.23.19-1.38.84Zm8.7,1.41a8,8,0,0,1-1.27.82l-1.82,1-3.46-2,1.59-.91a8,8,0,0,1,1.93-.89,3.1,3.1,0,0,1,1.21,0,3.72,3.72,0,0,1,1.2.45,1.72,1.72,0,0,1,.82.8A.63.63,0,0,1,237.69,221.66Z" transform="translate(-207.87 -72.4)"/><g id="_Group_40" data-name="&lt;Group&gt;"><path id="_Compound_Path_5" data-name="&lt;Compound Path&gt;" class="cls-67" d="M240.82,223.08,239,222l-.93.54-.47.27,1.76,1-1.48.85-1.76-1-1.37.78-12.92-7.53,1.37-.78-1.76-1,1.48-.85,1.76,1,1-.6.37-.2-1.77-1,1.48-.85,1.92,1.12a5,5,0,0,1,1.4-.22,7.4,7.4,0,0,1,1.83.2,6.4,6.4,0,0,1,1.81.71,3.53,3.53,0,0,1,1.3,1.18,1.3,1.3,0,0,1,.14,1.23,6.27,6.27,0,0,1,2.54-.1,7,7,0,0,1,2.43.86,4.91,4.91,0,0,1,1.41,1.18,1.88,1.88,0,0,1,.49,1.26,1.52,1.52,0,0,1-.66,1.08l1.85,1.08Zm-14.82-6,3,1.74,1.29-.74q1.15-.66,1.38-.84a.7.7,0,0,0,.33-.72,1.37,1.37,0,0,0-.72-.75,3.19,3.19,0,0,0-1.22-.43,2.35,2.35,0,0,0-1.19.16q-.34.14-1.72.94Zm5.14,3,3.46,2,1.82-1a8,8,0,0,0,1.27-.82.63.63,0,0,0,.2-.71,1.72,1.72,0,0,0-.82-.8,3.72,3.72,0,0,0-1.2-.45,3.09,3.09,0,0,0-1.21,0,8,8,0,0,0-1.93.89Z" transform="translate(-207.87 -72.4)"/></g><g id="_Group_41" data-name="&lt;Group&gt;" class="cls-73"><g class="cls-74"><path id="_Compound_Path_6" data-name="&lt;Compound Path&gt;" class="cls-75" d="M240.82,223.08,239,222l-.93.54-.47.27,1.76,1-1.48.85-1.76-1-1.37.78-12.92-7.53,1.37-.78-1.76-1,1.48-.85,1.76,1,1-.6.37-.2-1.77-1,1.48-.85,1.92,1.12a5,5,0,0,1,1.4-.22,7.4,7.4,0,0,1,1.83.2,6.4,6.4,0,0,1,1.81.71,3.53,3.53,0,0,1,1.3,1.18,1.3,1.3,0,0,1,.14,1.23,6.27,6.27,0,0,1,2.54-.1,7,7,0,0,1,2.43.86,4.91,4.91,0,0,1,1.41,1.18,1.88,1.88,0,0,1,.49,1.26,1.52,1.52,0,0,1-.66,1.08l1.85,1.08Zm-14.82-6,3,1.74,1.29-.74q1.15-.66,1.38-.84a.7.7,0,0,0,.33-.72,1.37,1.37,0,0,0-.72-.75,3.19,3.19,0,0,0-1.22-.43,2.35,2.35,0,0,0-1.19.16q-.34.14-1.72.94Zm5.14,3,3.46,2,1.82-1a8,8,0,0,0,1.27-.82.63.63,0,0,0,.2-.71,1.72,1.72,0,0,0-.82-.8,3.72,3.72,0,0,0-1.2-.45,3.09,3.09,0,0,0-1.21,0,8,8,0,0,0-1.93.89Z" transform="translate(-207.87 -72.4)"/></g></g></g></g><g id="_Group_42" data-name="&lt;Group&gt;"><g id="_Group_43" data-name="&lt;Group&gt;"><path id="_Path_25" data-name="&lt;Path&gt;" class="cls-59" d="M247.87,213.52c-2.39-4.12-8.75-7.07-16.24-7.07s-13.85,3-16.24,7.07h-1v3.6c0,5.89,7.73,10.67,17.27,10.67S248.9,223,248.9,217.12v-3.6Z" transform="translate(-207.87 -72.4)"/><g class="cls-76"><path id="_Path_26" data-name="&lt;Path&gt;" class="cls-77" d="M217.36,217.12v6c3.93,3.44,9.17,4.67,15.1,4.67v-3.6Z" transform="translate(-207.87 -72.4)"/></g><ellipse id="_Path_27" data-name="&lt;Path&gt;" class="cls-62" cx="23.76" cy="141.12" rx="17.27" ry="10.67"/><g class="cls-78"><path id="_Path_28" data-name="&lt;Path&gt;" class="cls-79" d="M220.1,221.44,245,206.77c-3.16-2.39-8-3.92-13.33-3.92l-17.31,10.67C214.37,216.67,216.59,219.49,220.1,221.44Z" transform="translate(-207.87 -72.4)"/></g><g class="cls-80"><path id="_Path_29" data-name="&lt;Path&gt;" class="cls-81" d="M231.63,224.19l.78,0,16.4-9.65a6.7,6.7,0,0,0,.08-1,6.94,6.94,0,0,0-.64-2.85l-22.15,13A27,27,0,0,0,231.63,224.19Z" transform="translate(-207.87 -72.4)"/></g><ellipse id="_Path_30" data-name="&lt;Path&gt;" class="cls-67" cx="23.76" cy="140.64" rx="13.79" ry="8.03"/><g class="cls-82"><path id="_Path_31" data-name="&lt;Path&gt;" class="cls-83" d="M229,220.95l16.14-9.51c-.68-1.91-2.52-3.56-5.07-4.71a26.93,26.93,0,0,0-5.83-.64l-15.61,9.62C220.24,218.38,224.17,220.4,229,220.95Z" transform="translate(-207.87 -72.4)"/></g><path id="_Path_32" data-name="&lt;Path&gt;" class="cls-70" d="M231.63,205c-7.62,0-13.79,3.59-13.79,8a4.79,4.79,0,0,0,.16,1.17c1-3.88,6.69-6.86,13.63-6.86s12.65,3,13.63,6.86a4.79,4.79,0,0,0,.16-1.17C245.42,208.61,239.25,205,231.63,205Z" transform="translate(-207.87 -72.4)"/><g class="cls-84"><path id="_Path_33" data-name="&lt;Path&gt;" class="cls-85" d="M231.65,205a23.07,23.07,0,0,0-4,.35v2.34a23,23,0,0,1,4-.36,18.44,18.44,0,0,1,10.93,3.15h0v-2.34A18.48,18.48,0,0,0,231.65,205Z" transform="translate(-207.87 -72.4)"/></g></g><g id="_Group_44" data-name="&lt;Group&gt;"><path id="_Compound_Path_7" data-name="&lt;Compound Path&gt;" class="cls-70" d="M241.06,216.9l-.61-.35a1.52,1.52,0,0,0,.66-1.08s0-.07,0-.11h0V214l-.75-.1a5.11,5.11,0,0,0-1.14-.91,7,7,0,0,0-2.43-.86,6.27,6.27,0,0,0-2.54.1,1.3,1.3,0,0,0-.14-1.23,3.53,3.53,0,0,0-1.3-1.18,6.4,6.4,0,0,0-1.81-.71,7.39,7.39,0,0,0-1.83-.2,5,5,0,0,0-1.4.22l-1.59-.92-.19-.78h-1.63v1.43l1.77,1-.37.2-1,.6-1.07-.63v-.18l-2.17-.81v1.43l.77.45-.37-.07v1.43l12.92,7.53,1.37-.78,1.76,1,1.48-.85v-1.43l-1.24.71-.52-.3.47-.27.93-.54,1.77,1,1.48-.85v-1.43ZM229,214.21l-3-1.74,1.13-.65q1.39-.79,1.72-.94a2.35,2.35,0,0,1,1.19-.16,3.19,3.19,0,0,1,1.22.43,1.37,1.37,0,0,1,.72.75.7.7,0,0,1-.33.72q-.23.19-1.38.84Zm8.7,1.41a8,8,0,0,1-1.27.82l-1.82,1-3.46-2,1.59-.91a8,8,0,0,1,1.93-.89,3.1,3.1,0,0,1,1.21,0,3.72,3.72,0,0,1,1.2.45,1.72,1.72,0,0,1,.82.8A.63.63,0,0,1,237.69,215.62Z" transform="translate(-207.87 -72.4)"/><g id="_Group_45" data-name="&lt;Group&gt;"><path id="_Compound_Path_8" data-name="&lt;Compound Path&gt;" class="cls-67" d="M240.82,217,239,216l-.93.54-.47.27,1.76,1-1.48.85-1.76-1-1.37.78-12.92-7.53,1.37-.78-1.76-1,1.48-.85,1.76,1,1-.6.37-.2-1.77-1,1.48-.85,1.92,1.12a5,5,0,0,1,1.4-.22,7.4,7.4,0,0,1,1.83.2,6.4,6.4,0,0,1,1.81.71,3.53,3.53,0,0,1,1.3,1.18,1.3,1.3,0,0,1,.14,1.23,6.27,6.27,0,0,1,2.54-.1,7,7,0,0,1,2.43.86,4.91,4.91,0,0,1,1.41,1.18,1.88,1.88,0,0,1,.49,1.26,1.52,1.52,0,0,1-.66,1.08l1.85,1.08ZM226,211l3,1.74,1.29-.74q1.15-.66,1.38-.84a.7.7,0,0,0,.33-.72,1.37,1.37,0,0,0-.72-.75,3.19,3.19,0,0,0-1.22-.43,2.35,2.35,0,0,0-1.19.16q-.34.14-1.72.94Zm5.14,3,3.46,2,1.82-1a8,8,0,0,0,1.27-.82.63.63,0,0,0,.2-.71,1.72,1.72,0,0,0-.82-.8,3.72,3.72,0,0,0-1.2-.45,3.09,3.09,0,0,0-1.21,0,8,8,0,0,0-1.93.89Z" transform="translate(-207.87 -72.4)"/></g><g id="_Group_46" data-name="&lt;Group&gt;" class="cls-73"><g class="cls-86"><path id="_Compound_Path_9" data-name="&lt;Compound Path&gt;" class="cls-87" d="M240.82,217,239,216l-.93.54-.47.27,1.76,1-1.48.85-1.76-1-1.37.78-12.92-7.53,1.37-.78-1.76-1,1.48-.85,1.76,1,1-.6.37-.2-1.77-1,1.48-.85,1.92,1.12a5,5,0,0,1,1.4-.22,7.4,7.4,0,0,1,1.83.2,6.4,6.4,0,0,1,1.81.71,3.53,3.53,0,0,1,1.3,1.18,1.3,1.3,0,0,1,.14,1.23,6.27,6.27,0,0,1,2.54-.1,7,7,0,0,1,2.43.86,4.91,4.91,0,0,1,1.41,1.18,1.88,1.88,0,0,1,.49,1.26,1.52,1.52,0,0,1-.66,1.08l1.85,1.08ZM226,211l3,1.74,1.29-.74q1.15-.66,1.38-.84a.7.7,0,0,0,.33-.72,1.37,1.37,0,0,0-.72-.75,3.19,3.19,0,0,0-1.22-.43,2.35,2.35,0,0,0-1.19.16q-.34.14-1.72.94Zm5.14,3,3.46,2,1.82-1a8,8,0,0,0,1.27-.82.63.63,0,0,0,.2-.71,1.72,1.72,0,0,0-.82-.8,3.72,3.72,0,0,0-1.2-.45,3.09,3.09,0,0,0-1.21,0,8,8,0,0,0-1.93.89Z" transform="translate(-207.87 -72.4)"/></g></g></g></g><g id="_Group_47" data-name="&lt;Group&gt;"><g id="_Group_48" data-name="&lt;Group&gt;"><path id="_Path_34" data-name="&lt;Path&gt;" class="cls-59" d="M247.87,207.48c-2.39-4.12-8.75-7.07-16.24-7.07s-13.85,3-16.24,7.07h-1v3.6c0,5.89,7.73,10.67,17.27,10.67S248.9,217,248.9,211.08v-3.6Z" transform="translate(-207.87 -72.4)"/><g class="cls-88"><path id="_Path_35" data-name="&lt;Path&gt;" class="cls-89" d="M217.36,211.08v6c3.93,3.44,9.17,4.67,15.1,4.67v-3.6Z" transform="translate(-207.87 -72.4)"/></g><ellipse id="_Path_36" data-name="&lt;Path&gt;" class="cls-62" cx="23.76" cy="135.08" rx="17.27" ry="10.67"/><g class="cls-90"><path id="_Path_37" data-name="&lt;Path&gt;" class="cls-91" d="M220.1,215.4,245,200.73c-3.16-2.39-8-3.92-13.33-3.92l-17.31,10.67C214.37,210.63,216.59,213.45,220.1,215.4Z" transform="translate(-207.87 -72.4)"/></g><g class="cls-92"><path id="_Path_38" data-name="&lt;Path&gt;" class="cls-93" d="M231.63,218.15l.78,0,16.4-9.65a6.7,6.7,0,0,0,.08-1,6.94,6.94,0,0,0-.64-2.85l-22.15,13A27,27,0,0,0,231.63,218.15Z" transform="translate(-207.87 -72.4)"/></g><ellipse id="_Path_39" data-name="&lt;Path&gt;" class="cls-67" cx="23.76" cy="134.6" rx="13.79" ry="8.03"/><g class="cls-94"><path id="_Path_40" data-name="&lt;Path&gt;" class="cls-95" d="M229,214.91l16.14-9.51c-.68-1.91-2.52-3.56-5.07-4.71a26.93,26.93,0,0,0-5.83-.64l-15.61,9.62C220.24,212.34,224.17,214.36,229,214.91Z" transform="translate(-207.87 -72.4)"/></g><path id="_Path_41" data-name="&lt;Path&gt;" class="cls-70" d="M231.63,199c-7.62,0-13.79,3.59-13.79,8a4.79,4.79,0,0,0,.16,1.17c1-3.88,6.69-6.86,13.63-6.86s12.65,3,13.63,6.86a4.79,4.79,0,0,0,.16-1.17C245.42,202.57,239.25,199,231.63,199Z" transform="translate(-207.87 -72.4)"/><g class="cls-96"><path id="_Path_42" data-name="&lt;Path&gt;" class="cls-97" d="M231.65,199a23.07,23.07,0,0,0-4,.35v2.34a23,23,0,0,1,4-.36,18.44,18.44,0,0,1,10.93,3.15h0v-2.34A18.48,18.48,0,0,0,231.65,199Z" transform="translate(-207.87 -72.4)"/></g></g><g id="_Group_49" data-name="&lt;Group&gt;"><path id="_Compound_Path_10" data-name="&lt;Compound Path&gt;" class="cls-70" d="M241.06,210.86l-.61-.35a1.52,1.52,0,0,0,.66-1.08s0-.07,0-.11h0V208l-.75-.1a5.11,5.11,0,0,0-1.14-.91,7,7,0,0,0-2.43-.86,6.27,6.27,0,0,0-2.54.1,1.3,1.3,0,0,0-.14-1.23,3.53,3.53,0,0,0-1.3-1.18,6.4,6.4,0,0,0-1.81-.71,7.39,7.39,0,0,0-1.83-.2,5,5,0,0,0-1.4.22l-1.59-.92-.19-.78h-1.63v1.43l1.77,1-.37.2-1,.6-1.07-.63v-.18l-2.17-.81v1.43l.77.45-.37-.07v1.43l12.92,7.53,1.37-.78,1.76,1,1.48-.85V211.8l-1.24.71-.52-.3.47-.27.93-.54,1.77,1,1.48-.85v-1.43ZM229,208.17l-3-1.74,1.13-.65q1.39-.79,1.72-.94a2.35,2.35,0,0,1,1.19-.16,3.19,3.19,0,0,1,1.22.43,1.37,1.37,0,0,1,.72.75.7.7,0,0,1-.33.72q-.23.19-1.38.84Zm8.7,1.41a8,8,0,0,1-1.27.82l-1.82,1-3.46-2,1.59-.91a8,8,0,0,1,1.93-.89,3.1,3.1,0,0,1,1.21,0,3.72,3.72,0,0,1,1.2.45,1.72,1.72,0,0,1,.82.8A.63.63,0,0,1,237.69,209.58Z" transform="translate(-207.87 -72.4)"/><g id="_Group_50" data-name="&lt;Group&gt;"><path id="_Compound_Path_11" data-name="&lt;Compound Path&gt;" class="cls-67" d="M240.82,211,239,210l-.93.54-.47.27,1.76,1-1.48.85-1.76-1-1.37.78-12.92-7.53,1.37-.78-1.76-1,1.48-.85,1.76,1,1-.6.37-.2-1.77-1,1.48-.85,1.92,1.12a5,5,0,0,1,1.4-.22,7.4,7.4,0,0,1,1.83.2,6.4,6.4,0,0,1,1.81.71,3.53,3.53,0,0,1,1.3,1.18,1.3,1.3,0,0,1,.14,1.23,6.27,6.27,0,0,1,2.54-.1,7,7,0,0,1,2.43.86,4.91,4.91,0,0,1,1.41,1.18,1.88,1.88,0,0,1,.49,1.26,1.52,1.52,0,0,1-.66,1.08l1.85,1.08ZM226,205l3,1.74,1.29-.74q1.15-.66,1.38-.84a.7.7,0,0,0,.33-.72,1.37,1.37,0,0,0-.72-.75,3.19,3.19,0,0,0-1.22-.43,2.35,2.35,0,0,0-1.19.16q-.34.14-1.72.94Zm5.14,3,3.46,2,1.82-1a8,8,0,0,0,1.27-.82.63.63,0,0,0,.2-.71,1.72,1.72,0,0,0-.82-.8,3.72,3.72,0,0,0-1.2-.45,3.09,3.09,0,0,0-1.21,0,8,8,0,0,0-1.93.89Z" transform="translate(-207.87 -72.4)"/></g><g id="_Group_51" data-name="&lt;Group&gt;" class="cls-73"><g class="cls-98"><path id="_Compound_Path_12" data-name="&lt;Compound Path&gt;" class="cls-99" d="M240.82,211,239,210l-.93.54-.47.27,1.76,1-1.48.85-1.76-1-1.37.78-12.92-7.53,1.37-.78-1.76-1,1.48-.85,1.76,1,1-.6.37-.2-1.77-1,1.48-.85,1.92,1.12a5,5,0,0,1,1.4-.22,7.4,7.4,0,0,1,1.83.2,6.4,6.4,0,0,1,1.81.71,3.53,3.53,0,0,1,1.3,1.18,1.3,1.3,0,0,1,.14,1.23,6.27,6.27,0,0,1,2.54-.1,7,7,0,0,1,2.43.86,4.91,4.91,0,0,1,1.41,1.18,1.88,1.88,0,0,1,.49,1.26,1.52,1.52,0,0,1-.66,1.08l1.85,1.08ZM226,205l3,1.74,1.29-.74q1.15-.66,1.38-.84a.7.7,0,0,0,.33-.72,1.37,1.37,0,0,0-.72-.75,3.19,3.19,0,0,0-1.22-.43,2.35,2.35,0,0,0-1.19.16q-.34.14-1.72.94Zm5.14,3,3.46,2,1.82-1a8,8,0,0,0,1.27-.82.63.63,0,0,0,.2-.71,1.72,1.72,0,0,0-.82-.8,3.72,3.72,0,0,0-1.2-.45,3.09,3.09,0,0,0-1.21,0,8,8,0,0,0-1.93.89Z" transform="translate(-207.87 -72.4)"/></g></g></g></g></g></g></g></svg>