<svg id="OBJECTS" xmlns="http://www.w3.org/2000/svg" xmlns:xlink="http://www.w3.org/1999/xlink" viewBox="0 0 183.35 145.07"><defs><style>.cls-1{fill:#d7f1f9;}.cls-2{fill:#6bc5f2;}.cls-3{fill:#2a47af;}.cls-4{fill:url(#linear-gradient);}.cls-5{fill:#fff;}.cls-6{fill:url(#linear-gradient-2);}.cls-7{fill:#9eebef;}.cls-8{fill:#f79b72;}.cls-9{fill:#1c3a8e;}</style><linearGradient id="linear-gradient" x1="41.26" y1="31.35" x2="144.2" y2="134.29" gradientUnits="userSpaceOnUse"><stop offset="0" stop-color="#6e19c2"/><stop offset="1" stop-color="#3e1c95"/></linearGradient><linearGradient id="linear-gradient-2" x1="93.35" y1="69.39" x2="93.35" y2="69.39" gradientUnits="userSpaceOnUse"><stop offset="0" stop-color="#6ae5d0"/><stop offset="0.13" stop-color="#65dbcf"/><stop offset="0.36" stop-color="#56bfcd"/><stop offset="0.66" stop-color="#3f92c8"/><stop offset="1" stop-color="#2057c3"/></linearGradient></defs><title>primal-aff</title><path class="cls-1" d="M694,277.51H538.85a2.13,2.13,0,0,0-2.12,2.12h0a2.13,2.13,0,0,0,2.12,2.12H694a2.13,2.13,0,0,0,2.12-2.12h0A2.13,2.13,0,0,0,694,277.51Z" transform="translate(-521.27 -136.68)"/><path class="cls-2" d="M567.85,232v-8.82H564a19.77,19.77,0,0,0-2.57-6.18l2.76-2.76L557.91,208l-2.76,2.76a19.76,19.76,0,0,0-6.18-2.57v-3.89h-8.82v3.89a19.76,19.76,0,0,0-6.18,2.57L531.21,208,525,214.27l2.76,2.76a19.76,19.76,0,0,0-2.57,6.18h-3.89V232h3.89a19.76,19.76,0,0,0,2.57,6.18L525,241l6.24,6.24,2.76-2.76a19.75,19.75,0,0,0,6.18,2.57v3.89H549V247a19.76,19.76,0,0,0,6.18-2.57l2.76,2.76,6.24-6.24-2.76-2.76A19.77,19.77,0,0,0,564,232Zm-23.29,5.29a9.7,9.7,0,1,1,9.7-9.7A9.7,9.7,0,0,1,544.56,237.33Z" transform="translate(-521.27 -136.68)"/><path class="cls-3" d="M669.55,261.31a84.6,84.6,0,0,1,29.1-40.75l.49.65a83.7,83.7,0,0,0-28.64,40.42Z" transform="translate(-521.27 -136.68)"/><path class="cls-3" d="M673.06,238.56c-1.55-3.12.32-7.2.32-7.2s4.38,1,5.93,4.1-.32,7.2-.32,7.2S674.61,241.68,673.06,238.56Z" transform="translate(-521.27 -136.68)"/><path class="cls-3" d="M686.64,236.93c3.48,0,6.35,3.42,6.35,3.42s-2.79,3.52-6.27,3.56-6.35-3.42-6.35-3.42S683.15,237,686.64,236.93Z" transform="translate(-521.27 -136.68)"/><path class="cls-3" d="M691.88,229.26c3,0,5.41,2.92,5.41,2.92s-2.38,3-5.35,3-5.41-2.92-5.41-2.92S688.91,229.29,691.88,229.26Z" transform="translate(-521.27 -136.68)"/><path class="cls-3" d="M682,228.61c-.85-2.7,1.17-5.74,1.17-5.74s3.39,1.34,4.24,4-1.17,5.74-1.17,5.74S682.81,231.31,682,228.61Z" transform="translate(-521.27 -136.68)"/><path class="cls-3" d="M690.31,221.83c-.71-2.27,1-4.83,1-4.83s2.85,1.12,3.57,3.39-1,4.83-1,4.83S691,224.1,690.31,221.83Z" transform="translate(-521.27 -136.68)"/><path class="cls-3" d="M699.21,223.29c2.3.6,3.57,3.39,3.57,3.39s-2.47,1.83-4.77,1.23-3.57-3.39-3.57-3.39S696.91,222.7,699.21,223.29Z" transform="translate(-521.27 -136.68)"/><path class="cls-3" d="M699.78,217.13c1.86-1.47,4.85-.79,4.85-.79s0,3.06-1.9,4.53-4.85.79-4.85.79S697.91,218.6,699.78,217.13Z" transform="translate(-521.27 -136.68)"/><path class="cls-3" d="M575.94,186.35a87.06,87.06,0,0,0-26.56-44.15l.54-.61a88,88,0,0,1,27,44.52Z" transform="translate(-521.27 -136.68)"/><path class="cls-3" d="M575.06,162.23c1.85-3.12.23-7.5.23-7.5s-4.62.67-6.47,3.79-.23,7.5-.23,7.5S573.21,165.35,575.06,162.23Z" transform="translate(-521.27 -136.68)"/><path class="cls-3" d="M561.11,159.49c-3.61-.31-6.85,3.06-6.85,3.06s2.62,3.87,6.23,4.18,6.85-3.06,6.85-3.06S564.72,159.8,561.11,159.49Z" transform="translate(-521.27 -136.68)"/><path class="cls-3" d="M556.26,151.13c-3.08-.26-5.84,2.61-5.84,2.61s2.23,3.3,5.31,3.56,5.84-2.61,5.84-2.61S559.34,151.39,556.26,151.13Z" transform="translate(-521.27 -136.68)"/><path class="cls-3" d="M566.6,151.22c1.09-2.73-.76-6-.76-6s-3.62,1.12-4.71,3.85.76,6,.76,6S565.51,154,566.6,151.22Z" transform="translate(-521.27 -136.68)"/><path class="cls-3" d="M558.46,143.54c.92-2.3-.64-5.08-.64-5.08s-3,.94-4,3.24.64,5.08.64,5.08S557.55,145.84,558.46,143.54Z" transform="translate(-521.27 -136.68)"/><path class="cls-3" d="M549.13,144.37c-2.44.44-4,3.24-4,3.24s2.42,2.08,4.85,1.64,4-3.24,4-3.24S551.56,143.93,549.13,144.37Z" transform="translate(-521.27 -136.68)"/><path class="cls-3" d="M549,137.93c-1.82-1.67-5-1.2-5-1.2s-.2,3.18,1.62,4.84,5,1.2,5,1.2S550.83,139.6,549,137.93Z" transform="translate(-521.27 -136.68)"/><rect class="cls-4" x="27.52" y="38.32" width="130.42" height="89" rx="11.55" ry="11.55"/><rect class="cls-1" x="572.29" y="163.84" width="76.66" height="111.32" rx="5.38" ry="5.38" transform="translate(308.85 -527.8) rotate(90)"/><circle class="cls-5" cx="151.18" cy="84" r="3.52"/><polygon class="cls-6" points="93.35 69.39 93.35 69.39 93.35 69.39 93.35 69.39"/><polygon class="cls-6" points="93.35 69.39 93.35 69.39 93.35 69.39 93.35 69.39"/><path class="cls-2" d="M626,194.71A16,16,0,0,0,614.62,190v16.07h0l-11.36,11.36A16.07,16.07,0,1,0,626,194.71Z" transform="translate(-521.27 -136.68)"/><path class="cls-3" d="M603.26,194.71a16.07,16.07,0,0,0,0,22.72l11.36-11.36V190A16,16,0,0,0,603.26,194.71Z" transform="translate(-521.27 -136.68)"/><path class="cls-2" d="M592,198.38a16.14,16.14,0,0,0-14-8.07v7.51a8.63,8.63,0,1,1-7.47,12.94l-6.5,3.75A16.13,16.13,0,1,0,592,198.38Z" transform="translate(-521.27 -136.68)"/><path class="cls-3" d="M569.93,192.47a16.13,16.13,0,0,0-5.91,22l6.5-3.75A8.63,8.63,0,0,1,578,197.82v-7.51A16.05,16.05,0,0,0,569.93,192.47Z" transform="translate(-521.27 -136.68)"/><path class="cls-3" d="M587.75,229.53H566.88a1.25,1.25,0,0,0-1.25,1.25h0a1.25,1.25,0,0,0,1.25,1.25h20.87a1.25,1.25,0,0,0,1.25-1.25h0A1.25,1.25,0,0,0,587.75,229.53Z" transform="translate(-521.27 -136.68)"/><path class="cls-3" d="M587.75,235.15H566.88a1.25,1.25,0,0,0-1.25,1.25h0a1.25,1.25,0,0,0,1.25,1.25h20.87A1.25,1.25,0,0,0,589,236.4h0A1.25,1.25,0,0,0,587.75,235.15Z" transform="translate(-521.27 -136.68)"/><path class="cls-5" d="M580.25,241H566.88a1.25,1.25,0,0,0-1.25,1.25h0a1.25,1.25,0,0,0,1.25,1.25h13.37a1.25,1.25,0,0,0,1.25-1.25h0A1.25,1.25,0,0,0,580.25,241Z" transform="translate(-521.27 -136.68)"/><path class="cls-2" d="M619,249.33H568.33a1.83,1.83,0,0,0-1.83,1.83h0a1.83,1.83,0,0,0,1.83,1.83H619a1.83,1.83,0,0,0,1.83-1.83h0A1.83,1.83,0,0,0,619,249.33Z" transform="translate(-521.27 -136.68)"/><rect class="cls-3" x="82.09" y="97.17" width="4.61" height="8.77"/><rect class="cls-2" x="89.96" y="93.96" width="4.61" height="11.98"/><rect class="cls-3" x="98.21" y="91.07" width="4.61" height="14.87"/><circle class="cls-7" cx="154.07" cy="43.08" r="18"/><path class="cls-5" d="M685,187.67l-4.39-4.39.77-.77-1.2-1.2a7.86,7.86,0,1,0-3.89,3.89l1.2,1.2.77-.77,4.39,4.39Zm-15.34-6.24a4.78,4.78,0,1,1,6.76,0A4.78,4.78,0,0,1,669.67,181.42Z" transform="translate(-521.27 -136.68)"/><path class="cls-2" d="M674.45,255.35l1.35,3.11a.47.47,0,0,0,.24.24l3.11,1.35a.47.47,0,0,1,0,.87L676,262.28a.47.47,0,0,0-.24.24l-1.35,3.11a.47.47,0,0,1-.87,0l-1.35-3.11a.47.47,0,0,0-.24-.24l-3.11-1.35a.47.47,0,0,1,0-.87l3.11-1.35a.47.47,0,0,0,.24-.24l1.35-3.11A.47.47,0,0,1,674.45,255.35Z" transform="translate(-521.27 -136.68)"/><path class="cls-2" d="M662.13,246.72l1.1,2.53a.38.38,0,0,0,.2.2l2.53,1.1a.38.38,0,0,1,0,.7l-2.53,1.1a.38.38,0,0,0-.2.2l-1.1,2.53a.38.38,0,0,1-.7,0l-1.1-2.53a.38.38,0,0,0-.2-.2l-2.53-1.1a.38.38,0,0,1,0-.7l2.53-1.1a.38.38,0,0,0,.2-.2l1.1-2.53A.38.38,0,0,1,662.13,246.72Z" transform="translate(-521.27 -136.68)"/><path class="cls-2" d="M676.35,245.74l.65,1.48a.22.22,0,0,0,.12.12l1.48.65a.23.23,0,0,1,0,.41l-1.48.65a.22.22,0,0,0-.12.12l-.65,1.48a.23.23,0,0,1-.41,0l-.65-1.48a.23.23,0,0,0-.12-.12l-1.48-.65a.23.23,0,0,1,0-.41l1.48-.65a.23.23,0,0,0,.12-.12l.65-1.48A.23.23,0,0,1,676.35,245.74Z" transform="translate(-521.27 -136.68)"/><path class="cls-2" d="M542,157.07l1.35,3.11a.47.47,0,0,0,.24.24l3.11,1.35a.47.47,0,0,1,0,.87L543.56,164a.47.47,0,0,0-.24.24L542,167.35a.47.47,0,0,1-.87,0l-1.35-3.11a.47.47,0,0,0-.24-.24l-3.11-1.35a.47.47,0,0,1,0-.87l3.11-1.35a.47.47,0,0,0,.24-.24l1.35-3.11A.47.47,0,0,1,542,157.07Z" transform="translate(-521.27 -136.68)"/><path class="cls-2" d="M538.2,174.39l1.1,2.53a.38.38,0,0,0,.2.2l2.53,1.1a.38.38,0,0,1,0,.7L539.5,180a.38.38,0,0,0-.2.2l-1.1,2.53a.38.38,0,0,1-.7,0l-1.1-2.53a.38.38,0,0,0-.2-.2l-2.53-1.1a.38.38,0,0,1,0-.7l2.53-1.1a.38.38,0,0,0,.2-.2l1.1-2.53A.38.38,0,0,1,538.2,174.39Z" transform="translate(-521.27 -136.68)"/><path class="cls-2" d="M548.85,173.7l.65,1.48a.23.23,0,0,0,.12.12l1.48.65a.23.23,0,0,1,0,.41l-1.48.65a.22.22,0,0,0-.12.12l-.65,1.48a.23.23,0,0,1-.41,0l-.65-1.48a.23.23,0,0,0-.12-.12l-1.48-.65a.23.23,0,0,1,0-.41l1.48-.65a.23.23,0,0,0,.12-.12l.65-1.48A.23.23,0,0,1,548.85,173.7Z" transform="translate(-521.27 -136.68)"/><path class="cls-2" d="M644.6,167.44a17.19,17.19,0,1,0-14.46,17,2.45,2.45,0,0,1,1.24.13l4,1.49.65-2.85a2.51,2.51,0,0,1,1-1.51A17.17,17.17,0,0,0,644.6,167.44Z" transform="translate(-521.27 -136.68)"/><path class="cls-5" d="M633.78,164H621a1.38,1.38,0,0,0-1.37,1.38h0a1.38,1.38,0,0,0,1.38,1.38h12.75a1.38,1.38,0,0,0,1.38-1.37h0A1.38,1.38,0,0,0,633.78,164Z" transform="translate(-521.27 -136.68)"/><path class="cls-5" d="M628.9,169.63H621a1.38,1.38,0,0,0-1.37,1.38h0a1.38,1.38,0,0,0,1.38,1.38h7.87a1.38,1.38,0,0,0,1.38-1.37h0A1.38,1.38,0,0,0,628.9,169.63Z" transform="translate(-521.27 -136.68)"/><path class="cls-8" d="M624.33,206.12s-.14-6.84-1.33-7.05-.49,4.05-.49,4.05-1.61-.14-2.1.63-.7,4.05.7,4.47S624.33,206.12,624.33,206.12Z" transform="translate(-521.27 -136.68)"/><path class="cls-9" d="M655.34,232.1c.56.42-.84,15.5-1.4,20.25s3.14,23.22,3.14,23.22l-3.67-.17s-6.6-19.55-6.74-22.07-2.93-19-2.93-19Z" transform="translate(-521.27 -136.68)"/><path class="cls-3" d="M656.59,232.1s-2.37,7.26-6,10.61-8.1,10.75-8.1,10.75l1.26,22.07-4.1,0s-4.42-22.16-4.42-24.12,6-21.79,6-21.79Z" transform="translate(-521.27 -136.68)"/><path class="cls-8" d="M641.72,197.86s-1.29,6.6,3.66,7.21,5.08-9.34,5.08-9.34-5.9-1.72-6.32-1.17l-.41.55Z" transform="translate(-521.27 -136.68)"/><path class="cls-7" d="M644.58,204.17l-.38,0c-2.24.16-4,2.24-5.34,4L631.73,216l-7.4-9.92-3.21,2.1s8.24,15.5,11.45,14.8,7.12-5.17,7.12-5.17-.84,13.73-1.26,15.55c0,0,13,5.77,18.3.33l-1.48-22.44a6.76,6.76,0,0,0-5-5.62Z" transform="translate(-521.27 -136.68)"/><path class="cls-3" d="M643.74,275.54V279h-8.41a.63.63,0,0,1-.31-1.18,38,38,0,0,1,4.63-2.36A5.63,5.63,0,0,1,643.74,275.54Z" transform="translate(-521.27 -136.68)"/><path class="cls-3" d="M657.06,275.54V279H649a.72.72,0,0,1-.36-1.35,35.77,35.77,0,0,1,4.33-2.19A5.63,5.63,0,0,1,657.06,275.54Z" transform="translate(-521.27 -136.68)"/><path class="cls-9" d="M644.8,211.34s-3.81-3.24-1.91-6.4,3.33-4.9,3-6.8c0,0-.14-2.41-1.84-.93a2,2,0,0,1-2.29.72s-1.39-6.86,6.06-8.35c7.75-1.55,9.93,4.19,9.32,7.85s-3.31,3.77,0,8.4S653.81,218.46,644.8,211.34Z" transform="translate(-521.27 -136.68)"/></svg>